<mxfile host="app.diagrams.net" modified="2022-06-03T11:00:56.983Z" agent="5.0 (X11; Linux x86_64) AppleWebKit/537.36 (KHTML, like Gecko) Chrome/102.0.0.0 Safari/537.36" etag="e3j6nj91abWOXLKNlE9l" version="18.2.1" type="github">
  <diagram id="J3hjO6OgJbEBVax-YOs6" name="Page-1">
    <mxGraphModel dx="2550" dy="773" grid="1" gridSize="10" guides="1" tooltips="1" connect="1" arrows="1" fold="1" page="1" pageScale="1" pageWidth="1200" pageHeight="1600" math="0" shadow="0">
      <root>
        <mxCell id="0" />
        <mxCell id="1" parent="0" />
        <mxCell id="8pKGcIUcJZvDd2UI-VuH-3" value="create keystore" style="edgeStyle=orthogonalEdgeStyle;rounded=0;orthogonalLoop=1;jettySize=auto;html=1;" parent="1" source="8pKGcIUcJZvDd2UI-VuH-1" target="8pKGcIUcJZvDd2UI-VuH-2" edge="1">
          <mxGeometry relative="1" as="geometry" />
        </mxCell>
        <mxCell id="8pKGcIUcJZvDd2UI-VuH-1" value="password" style="rounded=0;whiteSpace=wrap;html=1;" parent="1" vertex="1">
          <mxGeometry x="-460" y="80" width="120" height="60" as="geometry" />
        </mxCell>
        <mxCell id="8pKGcIUcJZvDd2UI-VuH-2" value="keystore management" style="rounded=1;whiteSpace=wrap;html=1;" parent="1" vertex="1">
          <mxGeometry x="-460" y="310" width="120" height="60" as="geometry" />
        </mxCell>
        <mxCell id="8pKGcIUcJZvDd2UI-VuH-12" value="public key is created" style="edgeStyle=orthogonalEdgeStyle;rounded=0;orthogonalLoop=1;jettySize=auto;html=1;entryX=0;entryY=0.5;entryDx=0;entryDy=0;exitX=0.5;exitY=0;exitDx=0;exitDy=0;" parent="1" source="8pKGcIUcJZvDd2UI-VuH-2" target="8pKGcIUcJZvDd2UI-VuH-1" edge="1">
          <mxGeometry relative="1" as="geometry">
            <Array as="points">
              <mxPoint x="-400" y="300" />
              <mxPoint x="-520" y="300" />
              <mxPoint x="-520" y="110" />
            </Array>
          </mxGeometry>
        </mxCell>
        <mxCell id="8pKGcIUcJZvDd2UI-VuH-16" value="encrypt with secret key&amp;nbsp;" style="edgeStyle=orthogonalEdgeStyle;rounded=0;orthogonalLoop=1;jettySize=auto;html=1;entryX=0;entryY=0.5;entryDx=0;entryDy=0;exitX=1;exitY=0.5;exitDx=0;exitDy=0;" parent="1" source="8pKGcIUcJZvDd2UI-VuH-2" target="8pKGcIUcJZvDd2UI-VuH-20" edge="1">
          <mxGeometry x="0.25" relative="1" as="geometry">
            <Array as="points">
              <mxPoint x="-330" y="340" />
              <mxPoint x="-330" y="400" />
              <mxPoint x="-530" y="400" />
              <mxPoint x="-530" y="540" />
            </Array>
            <mxPoint as="offset" />
          </mxGeometry>
        </mxCell>
        <mxCell id="8pKGcIUcJZvDd2UI-VuH-4" value="keystore" style="ellipse;whiteSpace=wrap;html=1;" parent="1" vertex="1">
          <mxGeometry x="-670" y="300" width="120" height="80" as="geometry" />
        </mxCell>
        <mxCell id="8pKGcIUcJZvDd2UI-VuH-5" value="" style="shape=image;verticalLabelPosition=bottom;labelBackgroundColor=default;verticalAlign=top;aspect=fixed;imageAspect=0;image=data:image/png,iVBORw0KGgoAAAANSUhEUgAAAq8AAAE2CAYAAABP4HuLAAAABHNCSVQICAgIfAhkiAAAIABJREFUeF7snQ9clFX2/z8zMCMMyn8QRMZ/+afUCiospVYrsuVrtbpupj+1wlrdit2vmObXLXPL3bRac1dttdJtyVI3y9rMNqk0hVJMJcFUTMSBAeSP/FEGZEbmd+7MMAzDzHMfGFDEe/flxsx97r3nvu+5z5zn3PPcq9BqtWZ0eArAwOnP4PfjR6Kfyoiy3O/wz1Xr8H1ZIxr7P4TXlz2ImlULsTSjzNJyo+YmzFmxEDcffhVzNnghecP/4R4/hZNUVdj7whysyO2H8SmP43+GRCM8yA8+DbUoO30An//zn/g09zyVUSHuhX/h6Yb/YoffHfifEb2hLD2Kb9f+DW9nldvqDMD1JN+ccSMQHaRAXeFPSNuwBu9mVVjyL978KF6fcw8GhveEslKPY+kfYv3GvSgwNqOKfHwN/hGfi5fn/B0HHb5vVN0qKf8bRxtsMqhw/XPvYCn+iUeW74bRqbfu6meX+d48DQvm3I/r/IwwVJbhp+3HEZB0J86//Duw+k1ht+HxOdPxi+HRCFY3UP9O4rstb+OtDJ2lHU/zee0zGaXkBwIweOLjeGx8rI1xKYrys7Btw9vYo79EpaXHx9B/GtatmIx+TszOfrwQv9uYS/o0GPcnP42HR4RAWVuG3MMl6DcuAt/MW4AP9SaP6p+9xZ87vrz2efI7dovp07z3/g9RG5/Cs9vPWrJ45aXa31I6BFNfmI2EAb0R7KeGkfjkH96B99f+B0cMVv2Wqn/2Fm9ueSajImo0kmZPwR00T0NQBX3uAfyb7gF72D1AYnz48vHnt1T9bPx5+VL6ubt0qIz+u9df+fcHJ+UWHwUBQUAQEATsBBSdY7wKwoKAICAICAKCgCAgCAgCgkDHE1B2fJWiRkFAEBAEBAFBQBAQBAQBQaBzCAjjtXO4iloFAUFAEBAEBAFBQBAQBDqBgDBeOwGqqFIQEAQEAUFAEBAEBAFBoHMICOO1c7iKWgUBQUAQEAQEAUFAEBAEOoFApxqvZlU//OK51/HO5s34ZP183KJy3kGgE3okqhQEBAFBQBAQBAQBQUAQ6LYEvDuzZ/XDf4UnYpTYs/i3eDu3pjObEnULAoKAICAICAKCgCAgCFwDBDrX8xoeiB61Z3DoNNt/VSRBQBAQBAQBQUAQEAQEAUHAMwKdarzaRXPegd8zmUVpQUAQEAQEAUFAEBAEBIFrlECnGq8+ahVhNbU6PeoaZS26LQgIAoKAICAICAKCgCDgIYFOM14bNf2QEBcNpT4fBeiEE2g97LgoLggIAoKAICAICAKCgCBw9RHolBe2gqe/gXcm9YOi9iQ+eOFrVF59XITEgoAgIAgIAoKAICAICAJdkECneF7PbZyLh6fPxVunIzAl6R4EdcGOC5EEAUFAEBAEBAFBQBAQBK4+Ap1ivDIMJsMZfJ5ZgMao/oiG2N/16lMNIbEgIAgIAoKAICAICAJdj0CnGa+sq/UNbJsBb7DXtkQSBAQBQUAQEAQEAUFAEBAEPCXQqcarXThhvXo6TqK8ICAICAKCgCAgCAgCggAR6FTjVVFahYt+/RA7oJeALQgIAoKAICAICAKCgCAgCHhMoFONV5+jn+Cdw40Y9dK7+GT9fNyiErGvHo+YqEAQEAQEAUFAEBAEBIFrmIBCq9WKTVivYQUQXRcEBAFBQBAQBAQBQeBqItCpnterCYSQVRAQBAQBQUAQEAQEAUGg6xMQxmvXHyMhoSAgCAgCgoAgIAgIAoKAjYAwXiVUoTbuD3hv8yLcIWJ1JSiJLEFAEBAEBAFBQBAQBC4fgU45Hvbyid+5LXmVHsX+dA2q2Ha1XSaZcccfemDOLwLRP7IHfC6aceZoPd5bWYXPTpq6jJRCEEFAEBAEBAFBQBAQBDqDgHhhqzOodmqdZoyZocZ155XILzahuocZv5wVgIm9fPHUI8X4oUG8f9ep+EXlgoAgIAgIAoKAIHBFCXQ5z6uh/zS8tewOZC1Mwbv5TS7PAMS/9A88WboST6zOhBEaXDfxacyeMBJ9g9S4VHoS325Yg7czS+wwI2a/iVX9d+GVjChMnTgKg4IUqMn5CC8t3opTiMRts3+LWfHD0NsPMJQW4dT2d/Di9p8s5etvfgrvLb4XIfS3ouEHvDrjFXxvbDYKzao+uC3JWj5CZUTZ6SxsW7cGX+TXUwkV4l74F+Y2/BcbEYuJIyLQq6EI3294DSszilsMtrcmEEHUflVZFfVJblIg4z0jMhwu/wEVGLe8H0ZHeuOHM/JrktuiuE4QEAQEAUFAEBAEBIGuQqDLxbz65u9Ghj4Eo+IH2BkZA2/D3UPqkJV+1GLkhU1cgiUT/JGz7i94dvY8/Gl7DWJTFuCx/i2P8vLu+yBmDD+N1HmP4uHpKVj+5UnUwgzlfU9ifrw39v91PmZT+UVr/4NTDY329nyy3sSTkyZh/LJvccHFSPWZvsBWfhGenPcK/m0YhtkvJOMWTfM+tj4xMej/5VI8MWMGUnZdwh1zpjvFzqowfN6beGvds0gI9HLRiryvVMGN+M3EAARWNCKn+JK8QuIqQUAQEAQEAUFAEBAErlICXc54VaAIOw7rERo3GgNhNQbVcWMwovYIvj5qQKPqRjwyIQJ5G1fgX5nHoS/T4+T2t/Dh6QjEjRvYYhgUOIZtqz5DdlUDTIYiHMvIwlm6Iig8EMrKfOzPKkQZlddl7UbqzuOyhtCMG3BffDTOfbkB72bloVz/E75YtQWH/G7BL2PIjWpLl3K/ovxy+mRE3q50nFFpMTSq4xzdDfeasfP7vkj/vB9S+vXE8rln8Y2DAS6rM+IiQUAQEAQEAUFAEBAErjICHWdNdWDHz5Gxd3rCvbir//vIy9dgTPxQ1B1+Dcdo6d4YNYBCBXpicPJ6fJzcstGGsgBatGfmojUZS3/GCUOzR7Xp6qL0NGSPn4U/rb0OObn5yM/JwH935aDUITTAXXcuafqgn58R+txS+yXeVUXQVakQMyAcyCiwfG+qKkOD7QplrREXSTKV2rFWI358eRomumuI871qH/D0E3r4hShwzwx/PL0gBCefLsUREfPKISeyBQFBQBAQBAQBQeBqJtAljVe1/gC+1k/Bryh04O0qLYUM1CBzywm7UapoKMM3i5OxOrfJPHQzBA1GuwHpeIVP/g4smZ2F4bS0H0P/4mYswf3xGzB38ecWzyw/Xfm4UsUFBU4eZXG4ZhzMLcfgbf3w6F2+mPeVgS++uEIQEAQEAUFAEBAEBIGrlECXCxtgHFnowPfphZbQgZvj4jGi6gj2Hq2zIFaVnobO6I8hw8nL6UFSWsIIPscHq5ciae33uDTkVtyo4ePwonJnajWIGtLcvimwD7SBRlSfbvbGyhHNOzAMYWGBFm9xR6Qe6uaYW1YfeyGM1d8czNARrYg6BAFBQBAQBAQBQUAQuHIE+NbaFZKtPD0Dp8PvRPKkoTh/+HscIQ8jS0rjEXzwZSF6T0rB/44biaiwKGiHj8b9sxfgyZs1sqTtc99jmHVfLAaQYRcQNhgT4gfCn5b+Cw38babI34md6QUIHp+Ex26ORmjUDUicPQWxtQfxxeG2eD3pha3kv7X5ha3G4EuYv8wfjyaqcXuMEnH3KvHCy6GIPa/A7kNst4PmFJn0GtatW4rfOL3IJguSuEgQEAQEAUFAEBAEBIEuSKBLhg0wTuqyDAodmIHZAyrwza6jLdCd27gUz9c+jsemzMfryT3p5atSFOXTdlVlF2UhPk+e0+gpT+FPScHoRfsPlJ0+gLXL3qPXu8z0vz64/69/p3ab7fr5Wz6y1Fvw8bP4w8Y8FG18Fa+paausea/hQXJrVp/+Af9cvg7fW+Jr279zgBzhFQ0KFKIRDz4VjKQQleWQgpKTF7HyubPYWuK424AKvdRq2urrLEqrWsf9ymlLXCMICAKCgCAgCAgCgkBXIyAOKehqI9JB8pgxGI+vXYb4nKX43erDbdhHtoMEENUIAoKAICAICAKCgCDQCQS6bNhAJ/T1mqqygcIZhvv9hO1bjgjD9ZoaedFZQUAQEAQEAUGgexMQntfuPb6id4KAICAICAKCgCAgCHQrAsLz2q2GU3RGEBAEBAFBQBAQBASB7k1AGK/de3xF7wQBQUAQEAQEAUFAEOhWBLq08Vob9we8t3kR7lC13L/UeQTqo6Zh5eYV+E0HHr/q3MaV+NzoHwHdHydCt2Em/XsERSM6ZycDU8T10K17AOcjpDl3DAMldHMfgS4pqmOqo1o6S/7Lxb/DQFyhijqLf1N3Orv+tmHreP1tW/viakFAEBAEBIEuu1UWGxqv0qPYn65B1RU60Kpo7D0wjS1H1JIfnTbAUkGXeAeQ0BfQ0DZUp/IQvv4AfCr4+8Syfpl9g1EwMw4YGWYtX3wW6q37EXH4fAuNLEy4lfLPInz+51AZTFDWydvy6lJIJPQzqeywQKqP4B0n+VLly3clyzf6DkDhmjtdzEzaBmztv6HN7EhlIENkRiIwLhhI/Rja3Rc6gD/pRkIMMIaM88ieVB/tvZtN/Dcd6hD9aBsfV/3zXD4Xg9Pqq/MjbkLl5MHEwJdUsBbYfwB93yuA9WnZs/nT3Fjr/snj01Htt+q20xet5aNjVqD7dTwwKgQIpX2pjXT4yvEzCNl0EH4OW91J87M24/7+xJNL5AsCgoAgcHUT6NLGq0/+V1i9uusBLh0zBniIDMP1XyKsWI2ymXeiNPmiCyPXlexKMlzvAQaVImDFNmiqVShOvB0Nc+5C7aId8HM0gEPph7+4mIwezjG4LZrxg37OWPqNzEPI0l1QGTUomdoW+a5seWVdIcJf/Ix2sm1O5SNvId5KhGd3pOEKnB9xG40DGcVGNw8d7eLfC4ihf5nZ8NdVoVEVgguTY1GaokSfPx4Af8Lx9EM+H9f981Q+Vzrd8jvD0FhUJg8C0rMQuKkSZpUPzgc078Hs2fxpbstV/+ToT0e1zyPhSj5LmZoqKD79GUHFBlzSBKB68q2oIP3osWCfRT94/HjtinxBQBAQBLo7Af5v6RUgUH/zU3hv8b0g3wRtsv8DXp3xCr53MDAaNYNxf/LTmB6jRY/aXKTvKnApJTseNYgOEagqq+rA7aL8UM88rof2IDqzgo6yBXpv+hlnn78OlQOzEZpnNbuMEX1RPJU8cBbvJ3nfTp2xeWf9AW0P8sadQECe1dMXteMU9ONiUR2ptBivurlTySvbFCJwJ4UMME9kA7xXfIg+OdaDCNzVrzZGkEFmhmLVIfgVMGPvAqJSs6H/ywi7fGbfIBTMIs/xSCJsqADSztn5saVyXnmXsG1f8svbLtRQSMRcMh6HsVMeyuGbuhdhOeyEMiN8CiodmqDDcyeTZzT7AHpYTwgmz7V7+aVkc8wz+0agcmoIeq4/igvP3eWQxZaFpflXx9yM6sQBNI7sRDcaD10BglL3oVcBG5tz0L76tUN95WSQhKMqOQJ1FJbRq8SNoWwvwdMPPh9Wlfv+eSofq1uKvw/KHxpKntYMRL+ns8wPlgLs/ePPH+n6rRW57x+PD799i3c0gVZG2DwPpVskrYwoaWWkr+PKiFv95cunTTtspwFUUGthKE8JR32IAj0renD4ORQVfwoCgoAgcI0S6JIxrz5Zb+LJSZMwftm3ZHo5Jw1GzlmApwacxabFv8f/LidDIT4eWrVzvCYdvzrvzTYfv+rYmo+BrKXqll5PszcZo5HU1olz9h9mte4s2VwaGCzGDNDoH4Xi58bRX7QcuHQbIhd9BeQAFwOYjDVkyJKRNqw/GvzZZxX0o7TUTglCTjHjpxHaN96HNmkjGQDU/qG99Hcq/dtsN1yl6jerrEavl4OxrzBSvaqeJB8ZzbRwWzCTZNPWInD5NoSuOk5L3GSIkY3IEr+89Tp3/y+vPMkYS565nH2IWPQZGaZK1CWT55l+vJ3TpRCSbZgZPmkFNt7S8juXd/3Zh4z324ntAQTpTE6X8Plf1JD8GZkIW/opIl5MI+MmCJUpo9Hg5lGwnl1vvAhVNc9wZaLw9KOluK35sHyp/rUm0jb5pPmbvemBSEv9LFChgMVrr6b45iXjUDHUOjf480e6fqv08vvnzIffPj2LJN4NJGqg3pSGiPmfQZFWh0ZazaiObrpd8vRXvnzMUC8fGwmUn4Oa9IPHz3H0XN2fWo+u+EYQEAQEge5HoEsar1KYG1U34b64njj28QZ8kVuI4tw0vL4lm/ySHZ+CM78jQ/JYi3hXs8aHDD3yrlZfhO6RCdC9Go8GFRmZzGkYwoxDoDB+JP1/PiJWHSHv5wWoKiqh3ZFJnlbmlW1EdCoZs8URKFk5g7yq5OVLUCBoxV67Z5HXE6n6vSpKqW5vmBIGw0RRB2ZvHxROJk8YSxo1faYfyljK2HEQ/uT51eTlwWdHsb1JXnmebLLL644hKq0E6ooaRG/6gfgFoyKWvI5OST92CLEuQPAJq5HJk9+5vKvPZWPI4xtaiMhPy1xlc78LzzhI8bF6+NLYqksq0HfrMWJL4QHkOXdOZu9g1CcS8/1HZY5v2/TDmQ9rvy39a6t8PP6W+cGM9cTrgd3pCF/+DeljT9TaHk5484dXf1v758yH3z6tPCTQA+qmvRSDTgYl08/dB8mi7YnqMaHNwyuhv3L4X4gZbXkRs2DNA2TsVyJkxT6oScV5/Bz1y9X9yVn/xGdBQBAQBLojATe+oq7b1YbwAYhU1+CMvnlp2ajXo6TB4YfFIr4RP748DRM7sysV9CJKdb3dA2ttigyYgfTjpzsNlbNTz3IBeZbuoyX7yEpoVuxBz2pvlNKLWZUpd8L7xW/hW8PzzvHqr6LwhEyUzrkVRWvISGNmfXoueXZY+AItcoeSgaiqh0bHrG1rCtRVosRIsZCWJF2+qYxuxkP0opNtMdioR++nv0YPS3/llCdPcHG1/aFAYaIX1cqp39HsBafqpibI0KYX2uJJ3rTv7LGifPmtxd3JxzxxdZMD4L/qe8v4mNsxA4wRWhTPvInCK4ipfSeMepiszkW7/IAfCpLJy23IRp9UfQs9cSdfW/TDJZ829a/t8snjT8Zr9mFEZ5RZ+hy9/hAKVt6NipF+6HvIAY+L+cOrvy3j54qPQ+u0Yt96/jYGBFGMAz2EznkYujktriYdJcPcktzr76WQYFn65Zd9iOb7MVqNCUL1QzGomHk9fF7NsemIe35+Ti8VOkkoPgoCgoAgcE0QaMdPdxfgQvZYg8OyuLKhY1/kkeqhwkDxq0YyIAO8oU3bRYYVM4DozXJmuFRclCpqyWv07UsvH5GhTW+3h+ZYgzijU9mPewLKyFDT7mg23riVubnAJy8X2gW5uORPP7bGBiiNkeThIU9YUwiEuxeUbPVxy9N1UZ9+BVMa/chaktHiNWpKcso3X+3+r/Mj6W11TTVC9jvGwLLmeAa+e/nqtOQFDQhGzfPT2AJ9c5o5Cbox9Eb8n4/Z3oh3J1cgilPi6eHkEC0p50Jd00hjSjskrLzVqYAfdM8kUFtnELk8B95ODzLu+LVFP1zxkd+/9sln6aQEf4WB5iLLJ690UxCIwkRGomVlwhey5o9E/fL7Ry/kudAfee3TisTyT+zx6y0HtrV33TFfrnwKUz3FdrN/leilU5D+3IazI44j8rg0PxbDLpIgIAgIAtc6gavOeFWXnkax8QH0DiPvSK7VaG0M74PgVjGvgHdgGIJUxg59YUthqiKvIf04Dw2Debf1hZQGbW/ywBls3kwKDcijaxLCYfQ+0cKosyibioJLbfGlzcrHYl0p+coZDk79zZXCq4YMbUrn4gbS/1ch5Hg9vKrJZDOqYQglw9P2cll9KL001Uom2qrMRfmm6r1qainfoTEXf7ouz0waajsygPmvLN5Xszd5fUPp+0zHH2YfVCX0o22EDsDXYQcGr3J58ruTj3m8VIsoANmWGlVhKHt+NLBzJyJ2V3IMVxbPTDGdAeS53mE1XFk1xkjy1rXYi9hmGIYWk+H6A1hUiXNyJ598/XDNR17/2i8fj7/CRA8abH44eNHN3qRf7OGupg4KE1mxEvOHV7+8/jHarvnw5q+ymuQ3+sAwiHQyz92DpHv9lS9fK40gz72C+Ejzcy4l9bnphVUDvbBKjw8iCQKCgCDQbQhIuxG6YDeVxh/xn8MXcMOEX2IgGQxmVT9MnhgLtuDcMtELW8l/8+iFLecarZ9r6eWhQoobjUVBXAjqoiNxdup15ImjrW9sxmDf9Gy6NBolycNRSz/ixpAg6MbSG+oDlVDWUEyqjgzQxDhUDw3AxQh6c3tqLP24k/F72MnD6FoASNXPitQNvY7ai0LtwBD6bxwuzOxPLydlW4xAhYniWw+R6zrhBpjIVmYvsFQlkjfYIUmVdyNS28trr4eeDPyGEH8U0FZBUJ1DyKFma9hES/OWXQ92n2lhUMqRX0pG5vHqUVJj/+dTbDXw2RKyWsaWZAoDyWgg4yYmBMz/y/bsPTuZxt+efKCbfS/JXgvN1pMwhgbBEB1EekLGuoxnE7n64Z4Pr3+eycfnTyEgGaTjo2Kho/lh0W8WYqEqo/FlJpT0/OHVL3f83PHht19C8eC0+8ZDd5EnPoz00w+1Q/vSfsC/QJnjISFu9JcnX6NvFOnHbSiK62OZn5UxA1GYfAvpVCnCjjP3PI+flHa3zItMeg3r1i3Fb/q7eDKVX424UhAQBASBLkdAxs/p5ZXZjD64/69/x+wBzXb1/C0fWYQo+PhZ/GFjHk6ufRXv0lZZizY8CGVtGXIPZ+HsAHrR4jKl8IwM6AIobnXmeJSxl7fYIQVrj9hjOJU1evK4pdNWWTeh4nkyTG1bZfXIZubOeUSt2k2HCMSgOuVBVLPytBUP1u5EiM345XVDun5WmjxdibegIpS809XkPUrfgz5bdTYjkL0Q9A0K5oxG0UoKJTCQtzOb2tc6viwlVZ4nHa99lk8+10OngBGjaQ9aarf8LHzX7m2xx20Re1HLQLG0rfZ2lSO/HBnbd43CVIYg2l6rcubdKBhHY8c82WkUUzyIQhwomUFxsCOpT7R/pyFlgmW13JpoiXj5VoSfoDKSSZ5+uOcjWXkHyMfnr03bA50/bTU1dTzOsh02SL99V31nH1/p+cOvX7qH1lwpPtLt01TY8TV0RpL/obtRMovNIZojpwqhKWdjx1YO+PrrTkYFO5SAdMQ0dSAqWGwthfXgVAHt+UwrDLZ4dx4/d3W3/F6FXmo1bTV4FqVVPJ2TV6O4ShAQBASBrkJAodWyfW1EEgQEAUFAEOguBMwYjMfXLkN8zlL8bvXhDtznursQEv0QBASBq5nAVRc2cDXDFrILAoKAIHA5CDRE3YDhfj9h+5YjwnC9HMBFG4KAIHBZCQjP62XFLRoTBAQBQUAQEAQEAUFAEPCEgPC8ekJPlBUEBAFBQBAQBAQBQUAQuKwEhPF6WXGLxgQBQUAQEAQEAUFAEBAEPCHQLYzX+qhpWLl5BX4T5XrzBF6+JwC7X1kldHPpPPokOnihi6dG/wjo/jjRcsymbsMjKHLcyqiLy341iWeKuB66dQ/gfETTsQOXV/prvX0e7bbxafv85tXPy+fJL/IFAUFAEGgrAdfWXltrEddfEQJFY++BaWw5opb8aN+mi502oEuIAcaQ8RnJdr+lfUyzaSuvTYfgY9nsn/J/TSdEjaLN9kNp53i2dc/xMwjZdBB+JbbDEmT05vyIm1A5mbaHivSlOmj/zv10OtV7BZbtuC6FRNJWYLR36zB2JC0dJHGc2k89YGnfchrVmjtdtEBtr/03tJm0Da6k/M1FC+lYXWjOInz+53RGhAnKOttpV5L1Ww+2cCGA/Su2d2vBTNoqaSQdT6uxbmWm3rqfzrqnPTgpeZov1TafD19+Vr/U+BijB6J4Mm1Fpg22nBSH9ZuhzaAtm9qQ2l8/Tz/5QsiXnwy1GYl0jDH1k06009qOVpVf3rUsuqRJdGyx087S6V9Du0FvKcCrn1fedavyv+3s+uVL4vpKOfK51y/5+uP6/uhaJvGtICAIXF0EhPF6dY2XDGnpZKAY+peZDX9dFRpVIbgwORalKUr0+eMBWAa8pgqKT+lQhWIDLtF+pNV0SEAF5fdYsM+az2nFMDQWlcmDaP/YLARuqqSDInxwPqDpaFw/6OeMJRs5DyFLd0Fl1NBerneiNPmi1ciuK0T4i5/BcefJ8pG0SftDSoRb9nQlQ4Mnf5N8oWQ4FxeTUdxseCm49XM6R+Z3wcx7aN/WUtp7cxudTqtCceLtaJhzF2oX7aC9ShUe5kvvTKf0WH7aHldyfMj4VtEjRnkh6UgZMGs4D0irfM/ql6GfrVps+YVc+c+PuI3GkR6KnI6blVteUoxTPyI0VWe/RMX2U7YlWfVLlJdsV25mZ9cvVw5310nIJ61fnuuPO5HE94KAIHD1EOiSxqtP3KOYN+V2DIgKQgh57spOH8C2dRvwRb71+NBGzWDcT4cUTI/RokdtLtJ3FbQgzstnF0fMfhOr+u/CKxlRmDpxFAYFKVCT8xFeWrwVefDFdROfxuwJI9E3SI1LpSfx7YY1eDuTTt+hxA5SuG32bzErfhh6037+htIinNr+Dl7c/pOs/CZhm45vrKLjG+X501p0082Hc9C++rVDXjkZpOGoSo5AHS379ioxQpt22CG/gnyxYShPCUd9iAI9K2xZGlqSn0s//sOog9Xl8E3di7ActuW+D8ofGkqe1gxEv2c9HpeVCLAVY0v5lpOxVh2CXwHr1QVEpWZD/5cRqByYTefFGy3nuTcnOv1nMhms2QfQw3KMKk9+Bck1lbyi7GBZlu6kkAHmyW2A94oP0SeHVz91J4ZOO0scQJ5HdmYpGTe6AgSl7kOvAuZ5pgMGtLR5fPYJBORZ9S1qxynox8WiOlJJxiv9eHqUf4nTPl9+q3edPMMJdDJaKE1hOgRASZ7hvhbPsPT4MGLqvJ+hzWOnq2lRMIt90zKZfelUrFl0CMdI8s4bSCHS6MTtxbvdAAAgAElEQVQpe/K0ft74msmzLdU+X34mqtk3ApVTQ9CTDpS48NxdLTroWf9tVRlq4Ut67CqQgle/pQaJ8izbGNGXDjmhFRTL6gWtnpw6g/D11tULHh859cPt/GbspPnz8qX1k8ePp198/bG1IP4jCAgC3ZhAlzRe/QLVKNn1L3yaU4AS8twNIUPyf1/4HUrnvI6DRl+MnLMATw3Iw7rFryML12NyShK06hJkWAZKw8lvHk3vvg9ixvCt2DDvTRxrCMXgmHA6vNKMsIlLsGTCRaSt+wtWnj4PzahpSElZgMcWPod3841Q3vck5sd744u/zsfn+kb4Rg3G2PBmXyIv3yoBHV9L7S6JycPbSS9iR5X8JfumHvgY6nChmr/cW68hQ894Earq1l4/9kNUPjaSPHFlUFvy2c8xXR9LntVNexCRakBJ4hjUJTPP45fkiSSDhp1rcViFAoo3RSQZenRClt+m/Qg5YSCvntWo9HLwdimM1DdVTxiY0ZdnsVDt6VIIGZHDzPBZUeDSEGAXtpTfDO0b79O3tCQ8+9dU7w/Qrj7dok5e/RcZj4xMhKVWw8vYg/p3BypTRqPH/L1Qm+jErFNkpA/rjwb/s1DXeEM/SksWbwlCTrEx8jQfkG6/ZVdc8dEl3k2GayPUqWkI1plwduRINJK3u3rp5/Avlh4ft6DsGczzPI7GuAKBy/dYHnzKZ40izlZD3uztaf2tJWg5vtLtty7t6hsfMr5vp1PcMhCkU9PjU1uSzPaH3YqCdcSFhd1kH0fEpmOkK63nl9uWJco3+keh+DkaA92PltULtYG8/6MG4yKdVuZj8fy7Hx97exL1S81v68qCVP18PlL6GVBgu0+6ka89+uXu/ib3/uh2jESGICAIdFkCXfKFrYqdb2P99n3IydejXE9ez407ccJvEGIHeNMy+E24L64njn1MntjcQhTnpuH1Ldnkd7MmXr7jSChwDNtWfYbsqgaYDEU4lpGFYtWNeGRCBPI2rsC/Mo9DX6bHye1v4cPTEYgbN9BSPCg8EMrKfOzPKkQZ5euydiN153F71bz8jtKG4MzvyJA75hDv2rpms3cw6hPJON1/1ObZtF5zIWa05UWngjUPkKFSiZAV+8hwcyivO4aotBKoK2oQvekH8hQFoyLWH2aNDz0fkPGXSEfL7k5H+PJvyPPXE7XMuCXPrVcFnWtf7A1TwmCYaFXf7O2DwsnkqWVJo24loJ4dA1tdgOATjo03X+ZO/lYVufnCVf3hGQcp/lFPnrMLUJdUoO/WYyQbhVeQZxUU0BCd+hX1IQIlK2cQI/LyJigQtGKvjZ+n+YB0+y074iy/2Zs82wnkjdu0l2Jwz1nHZ/dBMnR6onpMKHd83GCyf232Jl2JpYHbcRD+5HnW5OXBZ0dxcz5n/Hn1O+c7jy+vfefyrj6XjaEVg9BCRH5KYRFtTHLa75lzHN7rdyFk+X/htekMPejcgpLk4cyHLyvxyhfGj6R68hGx6gitXlyAqqKSjqzNpJWARppP0uPDBODVbxHS3fzm1M9rn6efPPl49xdnwM7645gv5/7oXJ/4LAgIAlcHgS7peTX3H4snkibijiHRCLbbO1U4p1KgIXwAItU1OKNvXno26vUoIc8pS7x8x2Exlv6MEwbH6EtypFD9fYN6YnDyenyc3HIQG8oCaIkdKEpPQ/b4WfjT2uuQk5uP/JwM/HdXDkpt3kZevrVWI358eRrId9mJyQ8FyeRFMWSjT6q+hWfTL/sQvF88Rt6cIFQ/FIOKmdfD59UcmyFMP8PF5JW0SaYw0XJ0OXmVoukllf3sS8rJPozojDJLndHrD6Fg5d2oGOkHv91VtLyZSV7yW1G0howI9liRnkvl2fJny2T2phei4mmZPu07N7G27uV3rsvVZ3f1GyO0KJ55E4U3kEykU9ZUDxOLImAxr/fRknlkJTQr9qBntTdK6cWwypQ7ide3dP48eb48yjfTkrBU+809cSV/I40XAsiDPedh6OY49bqcHiwsSWp8pP2Ql0JpPFT10OhYiIg1BeoqaQWEwiXsqf31O1RCf7YeX5Os9lvW4viJearrJgfAf9X3UNHzkLmNdzg5/Q/OtIYHsXb98ipQY+hBYTlDKSzmJwqLaXk/cSWpdHkqMZD0UnfaIr9z8lw+VqP7+c2rn5cvRz+l+h9czuSTq1+t9ceZl/gsCAgC3ZNAG2/tnQ+Bnck9beFs3HV6M15P/gLZZeQV1dyLl5gHrCmRPdTgsCytbHCKGOXl2+sx2j22jj1TNJThm8XJWJ3rekneJ38HlszOwvCYGMTQv7gZS3B//AbMXfw5zlJFvPzOp8ha8IPumQQydM4gcnkOvJ1+CBWmeoo9Zf8q0UunQOHK23B2xHGKGZX+8VUYiDVjTx6hJrNPYaLdBpitE0IeO1qk9cnLhXZBLi75kzFlbIDSGEkeXvLUOoU4nB9JuxVoqhGy3zEGtomOtPxyGLquPxDFKbTbgu4QIubn0lKvbYeClbRzAaVGX4ojfYgehOjt9NAca4hDdCozzhNQRoZ2310U3etBvnaHQrJ9x365lp+uMJJHdPknLg0lFsfKGx8uO6cXnByvlzP+3PotF0iMr0T7vLrrtOSZDAhGzfPTWIBHc5o5CboxtCPGn49ZdsSQTG1s309XjipoURfAHvek54+rdluWl+G/9Ui+Dqif176EfvL6r9Dx7y/WOiT0x1Uj4jtBQBDoVgS49/HL3VtT4GDcEFiNA9ushitrv3bAAESoraaSuvQ0io3+6B1G3idbagzvQx5aefm8/qiofh3VP2R4uOSlSkuYwef4YPVSJK39HpeG3IobNc04efmscu/AMISFBVq8uR2bbDf20GIyXH+AqmWYqZumvOghockcpR/hyAD7MqjZm7xuoZTHDFYTGZrFNi+srSazN73UxbyWNS0b8qqphxdtX1UZy8ItqhBynF48sScfVCX0o220TsDXsoWXY2qP/E5V0ItLrupv9KeYzQDyLO6wGq6slDGSvJlNHlgVjUarAbH94PvSs56H+dz2OXyU1cTf6APDIEdPaHPf2zI+zsTYZ69yMvmMahhCm/zuFHMcSuNrY+Jp/dY23Y8vr31XMjt+x1YUei/6xP4v7MUMqzH/+ZeIWHuKa7i2p/06pj/0UpVvtQzD0EUHWpYn4zevikJ5wmF04VroGPncz29e/bx8nn666D4c+y9Pv9zrj6v63X3HXphl91/SbpEEAUHgKiPQ5YxXr9pC6GoDMDiuv+X3ku0c8OT0eFCknyUpjT/iP4cv4IYJv8RAMjjMqn6YPDEWTbsu8vJ546M0HsEHXxai96QU/O+4kYgKi4J2+GjcP3sBnrzZsq6MPvc9hln3xWIA3fgCwgZjQvxA+FcVodBgNcJ4+VYZ6IWt5L/hrXXPUghjs6HAk4+f70MvMt1LS+K10Gw9CWNoEAzRQaiLJmOUfgwbfaMo/zYUxfVB7cAQVMYMRGHyLWzLBIQdd3DPaq+HPiEcDSH+KKCttKA6h5BDzJdFIQQZFNc6Kha6uBBcjKA3k9kSvKqM8skDS6lu6HXQjY2y1K8bG4cLM/vTyzPZLYxUEy2dW3Yl2H3GyaCQlp/ff+sV7upXGKgPBjL+YkLo1Tz2ZnUwzk6+zl6tsob6piMDIjEO1UMDrP2bGkvGuQGaw5XwNJ/XfpMgbuU30Y4XO+jt/4fuIk9iGI2PH2qH9qX9TH+BMsshDfzxYXHI9aQTtVrbzzaNIdMRo7+SHk4ovvUQrTgk3AAT6YvZOxBVieSNtifP6me7IUjpJ799axy1e/nr0aOkxv7Pp9j2wFRRS/HB1pUUT/rPYjod549+zM04N4vitk/R1nO2kAGp+uWU75ueTbSjLXG0tRSqYwwJonlEO2QM5I+PnPotQ+lmfvP48/Ol9ZMvH0+/pPXHQVG5f0YmvYZ165biN/1bPa1yy4oLBAFB4MoScPFsf2UFYsbjRnqJasGc57FhvBGGyjL8tH0XsgbcaRPMgJNrX8W7tFXWog0PQllbhtzDWTg7oMm85eXz+3du41I8X/s4Hpsyn0IXetLLWaUoys/CtrKLlsLnazWInvIU/pQUjF60PwHbymvtsvfo9S+r8crL50vQ/ivMoHi5kRS3SPu3GlImWFbzrYlCBJZvRdgp5h0NhGnqQFSw2Ela1sepAtrT9ADFczL5mfeVPEiHTgEjRtMerVQX7Sbgu3YvbRNl7Z82bQ90/rRV09TxOEtvQLOtmnxXfWfPZ0vCSLwFFaFUP9v/Mn0P+mzVtTBSi9iLWgY9elv2dm1OPPnDT8hblnVXv8JUhiDaPqly5t0oGEd1VZMxm0YxuYMG24Q4j6hVu+mQhRhUpzyIahVdQ/3D2p0IsRgnnuUrwGvfKoY7+VmudsfXtDpA/B+6GyWzGGOKYz1VCE25lQ1vfIyRQ1H6J3rgaEr/Mx7l/0MfPv8c2o8q6IW1b1AwZzSKVlKoh4Hqzqb+a0kPbMmT+qM/IkNBQj/Z+PLa58nf3DHXf/HKS7WvMNF8CYiAaeZgVGjo9mnhcxCRqT/ZY8Sl6+eXV9boacUknbbKugkVz9ODk22rrB7ZlsctST5y5JOe39L1W19o5OiHhH7KkU9Kvzrq/sCWEnqp1VA0nEVplbx7imttEt8KAoLAlSCg0GrZvkciCQKCgCAgCAgC1wYB9m7F42uXIT5nKX63+nAH7rN9bfATvRQErjSBLhc2cKWBiPYFAUFAEBAEujeBhqgbMNzvJ2zfckQYrt17qEXvuikB4XntpgMruiUICAKCgCAgCAgCgkB3JCA8r91xVEWfBAFBQBAQBAQBQUAQ6KYEhPHaTQdWdEsQEAQEAUFAEBAEBIHuSEAYr114VNk2YL947nW8s3kzPlk/H7fYT4PqwkIL0QQBQUAQEAQEAUFAEOhEAsJ4dQPXGHgvFm9ei2eG2M+ndXNl531dP/xXeCJGif2Lf4tfzXoNB3kn23SeKKJmQUAQEAQEAUFAEBAEugQBYbx2iWFwLYQ5PBA9as/g0GnauFskQUAQEAQEAUFAEBAEBAF0uUMKmsZEETUas5Km4Pbh0XR6VhXKcw/g/VXr8H2ZdUPpiNlvYlX/XXglIwpTJ47CoCAFanI+wrRVDVi+6kGcezkZbxxt2qJfg+uf+wdeVr+PyS+nI/6ld/CEcS/2aW7ErX17wqc2H1+tXYl3syrQEPYQ3lj3KO0CaEvLNuNu+lOBn/B20ovYUXWJTvXqg9uSfotZ8cMQoTLSIQV0gMG6Nfgi3/H4Uzr+lY4fDKL9+qvKqjzbjqXlPv5CbQUBQUAQEAQEAUFAELhmCXRJ49UUeAcWvDQPN+ZvwtqFe/CzMQADx90HbRAdf2kzXtmIefd9EDOGb8WGeW/iWEMoBseEQ112Gl/mTsGT40dAdTTTYjRe0tyEX45QIGttpmWgzVDDP2Y4vF56AU9kVSNwwh+xat4zdEzqy/iq7FM8N+lTsLCBl9dOxrnFv8fqXOuxkk1a0mf6AsyPv4Av/roI28t8cHPSXDzzQjJKk1/HQdsRsewEl+Ek15KYPLvR21Yt81GzYwtNnhm+bW1UXC8ICAKCgCAgCAgCgkAXJtAlwwaCx03E7diHdcs+wr78UpTrTyJz4xpszW3pglTQgazb6CjZ7KoGmAxFOJaRRair8fWuHHjF/AK32l5wMo0ah9iGbHydSUeV2pJ3zhf4IKucPhlx7suPsadhGO6PD+MOlRk34L74aCqzgTy1eSTbT/hi1RYc8rsFv4yxnRXPrYV/QaOmHxLioqHU56PAduwsv5S4QhAQBAQBQUAQEAQEge5NoAsarypEDYkio+1HHOG8oGQs/RknDK3PpfbevxOHMBL3xAXQ6AXgnnEjcOnwV/jBVp8CDagsLUOlbWyVxiLoqswIiurDHe1Lmj7o52eEPrfUfq13FSuvQtiAcIfyRvz48jRMnPS8JdSgLSl4+hv4ZOMbeGZACbZs+NouZ1vqENcKAoKAICAICAKCgCDQHQl0QePVillNUabc1GAkM7R18jL8iE8PX8Twu+PgHzYGdw+pwYGdR1ssv/egTQTYojxLLIwA9K/pc+sanb/p3CDUcxvn4uHpc/HW6QhMSboHQc7Ni8+CgCAgCAgCgoAgIAhcowS6oPHKvJp61EfdiBvbva+pEce+zETV8LvwwIQxGFm6DzscQg6YsaqJ6o9g26CzF7AGhxtRqi+yq4HCYhWroHKyaL0oPOFMrYa8w81eVlNgH2gDjag+3eyNZaW9A8MQFhbYBqO4WQtNhjP4PLMAjSRntBxD/hpVYNFtQUAQEAQEAUFAELi2CHRB4xU4t2sbRbzGYvbCX+P2/uFkAPbHiAmP4ZdD5L9fpjq6E3tLh+HXD1yPosw9yHOKGzUNuB9PTbgRUVT3bbOn404cxzfpLAbWmpTGUhSTkTo4/iYEkQXbZMQqcBI70wsQPD4Jj90cjdCoG5A4ewpiaw/ii8NNuxuwOuiFreS/4a11zyIhkF40a0eqJ88ymcDtMn7b0ZwoIggIAoKAICAICAKCQJcnIN8avIxd8a76Hm8sViCJjMInlk1DCG2Vpaetsv69v3V8qzuxFDiDTzNPY3Jfb6R/eabFZSzm9fz+3fg57nd4Pak3LpUepZ0DVreITVUaj2Dbxr0YMj0F68f3cNgqy4iija/iNTVtlTXvNTxI72hVn/4B/1xO23i5iL91J1+bvmfe386NVGiTOOJiQUAQEAQEAUFAEBAErhQBhVarNV+pxju3XRWin3kTK6J24Jn/24az9sY0ln1enyx9DY+uPty5InhYe93Nf8DWhf2wZ/ESvJ1b42FtorggIAgIAoKAICAICAJXP4EuGTbgKVZ2OEDg8N9g9igfHNu528Fw9bTmy1ve5+gneOdwI0a99C4+WT8ft7Q7Bvjyyi1aEwQEAUFAEBAEBAFBoLMIdMmwAc86G4C7XngHyQPqcCb9Hbyyq2lDLM9qvRKlFcYz+Hb5s/j2SjQu2hQEBAFBQBAQBAQBQaALEujGYQNdkLYQSRAQBAQBQUAQEAQEAUHAIwLdMmzAIyKisCAgCAgCgoAgIAgIAoJAlyVwTRuvtXF/wHubF+GONsWSqhD3wgfYnBIntrDqsmptFazRPwK6P06EbsNM+vcIika0b8syXjdNEddDt+4BnI+QcbAGrzIooZv7CHRJUdwrxQWCQPcjcPn1v2Pnb9cbkcvbP9748fJb8/NUfk/Lt5So7fK37tHV9U17+XX27283jHmVrxhetEXW/nQNqrrgNlTGwHvx8trJOLf491id6+ocMfn9dHVlZ9fP2iwaew9MY8sRteRHNJuNKugSYoAxZJxF9qSr6oHsPIRvOgSfCjkbX1D5X8cDo0KAUA1tIVYHHD+DkE0H4VfS8hjewoRbAc1ZhM//HCqDCco6563W6EY0IxEYR8dVpH4M7e4LNlTURuIdQEJfKk9lTpF86w/IlI9VwSvPy3c1Ym35Trp+XdIkIJ6xd0jpX0O7QW//4vyIm1A5eTCNkS8xrgX2H0Df9wrItHZMrvldComEfiaxHxZIF9PkOk78UuXz45Xn5bfsmNQn1/KzEu76D98BKFxzp4tKSffW/hvaTCPMvsEomBkHjAyz6k/xWai37kfE4fMuyjl/JV+/nUs2f5Yaf97847cvR3/cywZ4On7y+bofX/fyecan0WP94PNnsrvTz47wRkmND79/bTsK3f04SOVI6bdUOWueVP/YFZ7pt2f6w9rnycf/fWli0B795/OTO/94v7+u7QN++01XXNPGq0/+V1i9Wj4scWVHEOgFxNC/zGz466rQqArBhcmxKE1Ros8fD9CRDDJSTRUUn/6MoGIDLmkCUD35VlRQ+R4L9rUsH0qGV3ExGZ2ujf/zI24DBtHN1tjSaC4dMwZ4iAyv9V8irFiNspl3ojT5opMR7l5OXnlevvua5eXIqv/UjwhN1dkrVFVX2/82DI1FZfIgID0LgZsqYVb54HzAxVaNu+bnB/2csXR/zUPI0l1QGTUomdoWfrzyvPxWYrr9wrX8gFT/lXWFCH/xMzg+BpWPvIX0RYnwbPYUrCTD9R7Sq1IErNgGTbUKxYm3o2HOXahdtAN+ch7Q5Oq3m55Jj7+M+SenfQn9cSOW7WtPx08+X3fjKy2fh3w81g+SjsNfSj+l+yYnlzM+MvonpxVPrpHWb17NnP41FW+3fnuoP+DLJ7f/7dN/Hj/58w+c319eS7x8WbYCr5KumK+IGo1ZSVNw+/Bo9KRDDsrpkIP3V9FBAmWNqL/5Kby3+F46/ABQNPyAV2e8gu/tBox1H9gnjHuxT3Mjbu3bEz61+fhq7Uq8m1Vh76oZkRjzzGuYHj8IvSj/+w2vYWVGsS1fg+smPo3ZE0aib5CaDkE4iW83rMHbmSX28hGz38Sq/rvwSkYUpk4chUFBCtTkfIRpqxrwxrpHQT4va1q2GXczOfET3k560XaQgvv6G1U3YNZfX8BtR1/FH9Ydtpxt0Nj/Ifx52YO4sGIhXj49Wkb91qbZlmNBdAhDVVlVB56RcA7aV7+2cwDKyeAMR1VyBOpo2b1XidWQNEb0RfFU8tBavHfknT11xub9NEKb5rg/bwX5OcNQnhKO+hAFelYoaNl9Knm9mny9d1LIAPOUNcB7xYfok2P1DJh9I1A5NQQ91x/FhefucpDHD/XM43poD6IzKywH8/be9DPOPn8dKgdmIzSvkTxrQSiYRZ7ZkaRBBtKJtHNtKO/Lqd9WlYZCHuaScT2MnYJRDt/UvQjLaT7BzT0fDad+m9llqIVvQaWLg4d9UP7QUPK0ZiD6PZ09P8Chh+xPd/zYUhEGmaFYdQh+BUz7LiAqNRv6v4yw82Pl3cmvNkqXDy6XzmfjUx1zM6oTBwBa8syDxltXgKDUfehV0OwVcic/wOu/ET7ErTnRCSKTyXOffQA9aBEA8Kd2e9DnEwjIs3ryo3acgn5cLKojlWS8WmVw13+fCp5+s/nBvDvk2WV6Gkq3cPLsKsmz29fi2eXpL2/+yWmfmnGrP6SuEvz5+mEj61b/5fF1P75Md6Xmr6d8PNUPHv8e3Pkp3T/G173+8MeH1z/e+PHzpeXn6bf0/ZnfP979kSe/Z/qj4dz/QvN4vx9W+aX0X2p+st5J8+fNP7Os318bRY/+0xGrDB4J0BmFTYF3YO5L8xCPvXhn4Rw8M+8VpOYqERVkNWh8st7Ek5MmYfyyb+mntXUyQw3/mOHw2vICnpiRhGe2X8I9857BvYHNuHziEjFavxlL5y3EyqM+GDtnuj12NmziEiyZ4I+cdX/Bs7Pn4U/baxCbsgCP9WdHZTUn774PYsbw00id9ygeppO8ln95EtFln+I5ku2BpDeR1VCKbxY+gkn0eeKk5+0ngEnVrzSSkbv6M1wYR/2+OYC8Zv0wJXkKItPXYnVmGdQy6rdKSMfbznvTo+NtfQz0a17t2uvpyKFeQ+NivAhVtdVwbfSPQvFz4+gSCgdYug2Ri74CcoCLAa1jStlEKx8bSTbwOagt5RuhfeN9aJM2kgFG7R/aS3+n0r/NdsOVGSgFs26nvAMI0plajInZm4zlSGrnxDm74abW0REX5EE0WIwh9uRJsmlrEbh8G0JXHacQCDKUbEPLK8/LtwpDPGLJ85mzDxGLPiNDSIm6ZPLckXHOkhQfefVTJcNuRcG6/wfd6knQzb4BDf7Wus3eZJCzc0sKVChg8cKrKf52yThUDGV9b0oS/FTWOebl4M1WGMlgU/UkfmTU8eTnlDdz8ln9F5k+ZWQibOmniHgxjYy7IFSmjEaD/VFdQn5Z/W8mcSmExn6YGT5pBTZ9ocNETtFDxrD+NqYq6EdpaR6UIOSU1XCVGr/mmq1/tdZvssUT6XE2UQP1pjREzP8MirQ6NJK3uzpaCdnj79CQ8/xzlMFV+5Z8N/rDsqT4yxk/sCAjt/rP5ys1v3nz17HvTX+3i4+tcHv0w1EGZ/78+Sl9f2J1S+qPjPnlKF/r/rFcqfHj5UvLz9dvTnm5/ZPQb37/HAmR68Xp901yfDny8fvPand/f2O5UvOTPz9480/O76+VgFz7oCXN5k/d0ngNHjcRt2Mf1i37CPvyS1GuP4nMjWuwNVd+cKt3zhf4IKucSBlx7suPsadhGO6Ppxg2S1LB6/R/8Y9tB5Gvz8WuLenIV2kxNMqblsFvxCMTIpC3cQX+lXkc+jI9Tm5/Cx+ejkDcuIEtxkGBY9i26jNkVzXAZCjCsYws7oEKcur3zv0AS7eU4ZbkpzBt9lw8rPoGf1/3Ayhy8bKm4MzvyJA85hDv2rp5s3cw6hPJ+Nx/1Oa5AgrjR9KF+YhYdYS8dxegqqiEdkcmebKaF2svxIy2vIhVsOYBMrYqEbJiH9Qt7dDWjdm+KRtDHs3QQkR+WtbqGrPGh4aX2qm+CN0jE6B7NR4NKjKCmdMzpAcZByRrLIUj7DgIf/KsafLy4LOjyeNOT6288px8u0C6Y4hKK4G6ogbRm36g9oNREUtPvZSk+PDaZ+V75hyH9/pdCFn+X3htOkOGyC0oSR7OfJRW+dnNNvF6YHc6wpd/Q8ZfT9Q6GM9S/LwqSul6b5gSBsNEmMzePiicTJ5cljRqy3+k5OeV5+Wz+sMzDlL8sp48yxegLqlA363HqG0KTyHPJ0tS8lv4cfpvqcSW9GOHkK4UIPhEk/I1IjqVHraKI1CycgbpKK0CJCgQtGJvh+i32Zs8zwn0gLVpL8XQ0gMb04/dB8ki6YnqMaFc/XOUnf3tav6x76Xml5T+sLJS/OWMn0VGt/rP5ys5vpz5a2nbIbWHj2P59ugHK++OP08/ufcnjv7IHh9bJ1v3z5bhdvyk87nyc+6fvPJy+sfTb0sPeP2zdbOt+sOTT879XUr/mVhS85PHjzmHePc3W9e5/5FjH0hV0g3DBlSIGhIFpf4rHHGKZZQC4ZinoCXmytIyNC0OKo1F0FWZca8K6f4AACAASURBVHtUH7qMLREbYSCjtMlr61VbhfNk0Krot9kYPoBCBXpicPJ6fJzcssWGsgCLg67JhDaW/owThmaDTI58cuuv2bYS/4z5O56++xy+WPh+O1gY8ePL0zBRjlDtvsYPBcnkxTRko0+q3ua5IgNjIP04605DJWGM+mUfgveLx8gbG4Tqh2JQMfN6+LyaI2koMzGZp6BucgD8V31vqd8sNQMqyNyvrm+xtH4plAxIVT00uuYl/EBdJUqMFOvknFyUb3GJ23wyI4ur7X1RmGg5uJy8odHsJSv6WwYfSztu6g/O/Mkuhl9eBWoMPShsYygt6/+EYPa8xlrOPozojDJL36PXH0LByrtRMdIPPtlhHH5VFN6RidI5t6JoDT0k0FxCei7Jz8I/WOKNL688L5+FJGhRPPMmCl+gNu07idTDRM5jeePvvv9+9pf6mO7Qw2w86UPadw6x1uT5uY9CSiIroVmxBz2rvVFKLw5WptxJ+votfGuIqIzxc6ffIH1HAHmw5zwM3Rwb0qb/lJPh7ZjcjH/zJa7mnzXXXfvMry6lPyxsQ4o/BSFx9IO1L63/UnzVqv6S+tmm+UshGK3vT3w+TXzbpx/W1Sd3/K3rI+71s8dx6ftTI1d/SmWMj7WHrvvHHz+p8W3T+LjQb355vv5J6zevf83vDrAQnrbrD1++Jv1ydX+Xc3+Tmp98frz7W8v3R+yydsIfUj/dndDc5atS7SKary2t9yBDtMnQZGEEoH8tF/3d16ZoKMM3i5P5uwQ0GNlPe5uTnPpNgf1xfRS71QVgYH+KycvVt7mdzi3gB90zCSTeGUQuz4G3hKHqSg6FqZ5iD9m/SvTSKVC48jacHXGcQgOkK6rTkuc0IBg1z08DLYA0p5m0fD7mAKKX07dGMrACvCm2dhcZJsxIiSJvHF1acdF6vcRDkcJA8bkS5Xn5rvralu/aU7+frpxMCi3qAryg0NGjFesfeS2tP5QUb20iI97iefYFj1/fPx+DT14utAtyccmfjCljA5TGSPKQkydXRggJ6yuvvHR+IIpT4unh5xAtqedCXdMIyxvSK2n3A0o8+aOXU18l+s9ieJvS+ZGDSS+qEbK/OQa20bcvvbwVatm9IjTHEgRLngpm/CegjAxd7Q4Wl8pP7vS7N3PyG8njv/wTS/y1c7LoqoT+NV8vPf/cte9qfjnqD4v5leLP2pceP+cetfzM4xtcLD2/+6xn/OT8wHrOp336YTV+3PGPPC49Py20eP2T0J+2jI+r/kmPnsxcCfll3d8kyrelf03SttTv5rh56d60X3+k5gev/7z7m/bPxdz5KaU/vPmn3eFovEsT8jS3GxqvRujJUKufcCNuVO10eBFLPipmrGqi+iMYmZZlfLOqDwaHG1G6q4hbiar0NHRGfwwZHk4GYyH3encXKCxWLXlznSxmefWHYkzybIrJ3YJFG/pj/pxk/CZ3CT7MJ8PKltzV7yiPd2AYglTGDn5hi7Vgm9ihxWS4/gC2Kt+c6Ac5r4qWRsNh9D4hOxSAeQtNmiZzy7G+ln8zj4ZqEQXQ2lKjKgxlz48Gdu5ExG56gclEwIvpx21oGMy7rS8sNWh701AYLN5Wr3Jm3KphCCXvh814qA+ll6ps46QwkewS5RUmqlsi3yoW1R0ZYFnGZ54uszd5dUOpb5nMcJLmw2u/JQ3rp7pI8ubRS3G+1Zeo/2SIMfksXl7rjcjsTf1jxntNHXj8HOOQvGqs+nYujoXLVCHkOPtMdcscX9flm3vgKr/Rn1ZHAsgzvsNquLKrjax/Ng8sT36FibyaEv1vbt0HVQn9aBuwA/B13EGATdhWT7m2HzxfdruVHr/m+p3/suq3sprGx+gDwyDSibzWPxTyxl9q/jm32/TZ/fxy1J9Gf4qZluDvWLur8WOvplq03p3+q+jBQIIvb3y9qslbLjF/rfJ1BJ/26oc0f9785N2fePrDH5+mK9z0z5ItMX6cfC9LpF7776+8/svvX/OVjvpt/ZbXv47QH6Lo4v7Jm99+9NAu9fvW6B8tOT+5/Lj3N0fCnv3d9MK4gV4YdxXy2A2NV1rY37UN+yb8HrMX/hrm9/bgVK0GvUeNRXTuRnyRK+2Za8JtGnA/nppwHG/tr0HElOm4E8fxr3Q2s6TDhJXGI/jgy0L8Y1IK/rfqn/gw5xy8wvvhhvh4RO9fjbezmpebpYZWaSxFMckdE38TgnKzyN9jhJEeuuXUHzjhGTwzpBAbUj7D8bIeWDHqdSxJfgTZC/+F47anUnf1N8tEL2wl/w1LYvIcdjmQklhung+9IHQvLenWQrP+JIyhQZYwCgX9qKvZUjkNT9/0bBQm/MIShxmy9QzUBtpuaGQ/BOiOoBd5Vgpn9oH3YT0Cyi+iISAA5xNvIc9gKcKO88eWeTR6lDQb8RbDkCVaglJbttRqoJdvClE/MxYFcbXWrbKmXkeevBMIImNVAXJ9HaLrEm6A6RDbvzYQVYnkbUOTBV4rWR40DaXqt+uX9nroE84i4lA9Sth+tapzCDlk9RVL8QnIk66fxUwWzIq286uKjMalyRS3eeqwpX+WsIQMilul7ct0OfXorWvE2URagleVUfu1ZNyaOfyIxNDrUBZZhxBdPSq0g6iu/sSMlsxtRp60/I3c8lL1K7yJkYGMu5gQmPMoppn2XD07mcbPluSMv1T/m+oxUWiCZVeFtWda3BGUNcSOmCExjjaJyIJPtRJnE2LJ+KeHn8NWD61U/3n6rTDRjiU7KHTpobugM9ALfccNljlUETcIvofTaUcK6fFnL3NIzT+FKkpyfvH0h8ef8ZMaP6vxShe50X8ledKl+CpMjRz95M1fz/h4qh+NvtL8+fOTfl8k7k98/bnEGR9rD93pf1P/3Y0fb3wtIVIS8vPun/z7s7T+8fSbf3/2XH+k54f0/FaQE0Lq983MvT9Kzw859ze7Dnj4R2TSa/jb3Rfxn5S5eDe/KdiyudJuabx6V32PNxYrkDR7Cp5YNo22xKoib+wB/Hs/baOBPrj/r3/H7AHNRuj8LR9ZiBR8/Cz+sLGEDJQGnN+/Gz/H/Q6vJ/Wmra6O4ou/rra97S9tvLJ6zm1ciudrH8djU+bj9eSeUFaWoig/C9vKbMvOMgaVGanbNu7FENqFYP34HiRT81ZZUvWzbbEWTY/GiVUL8VUZ8/gYkL12HdJom6zfJ/2I+bR9FnuKkapfhnjtvsRMxh5GUlwW7c9qSJlgWY22JgoBWL4V4ScaoazRk0c2nbbKugkVz9MPv22rrB7ZZCywQwmoDtPUgahgsX+0LI1TBbSnJnnAauQsB/JFD8/IgC6A4hZnjkcZe3mLHVKw9ogtBpUFrH+DgjmjUbSSlsIN5A3NJv+81voyFatdujw/3xITdugUMGI07ZFK9Zafhe/avfY9QqX4cNs3Ea+ACJhmDkaFhqa/Rf6DiEz9yR5jq03bA51/HDB1PM6yHR5oKybfVd/J26PUgpc8tfRAURFK48P2j03fgz5bdXYjjyc/r7xkvqkMQbT9WeXMu1EwjsaumozZtFwyNGmJX2aS0/8i9qKWQY/elr1dHdN5RK3aTYc0xKA65UFUM/0hfli7EyE2T71U/+Xot3bH17S6Q+Pz0N0omcUY0xieKoSmnD18SOsXb/6FneLNL47+yOIvrR/S+s/nKz3M0vPXcz7W1tutH948/nSrkZyfZu79iac/kvPLBtd9/9gFUvcv5lmXyufLL31/lR5fq/gS+ifj/iglf8foj4R8nPktrfssBIx3f+Tx83T+8SRsylehl5qCPxvOorTKel9zLqnQatm+OCI1E7Du8/pk6Wt4dPVhAUYQEAQEAUFAEBAEBAFB4DIRMNNO94+vXYb4nKX4Hdlhzi4CJgbfjXiZhBXNCAKCgCAgCAgCgoAgIAhc2wQaom7AcL+fsH3LEZeGK6PTLcMGru1hF70XBAQBQUAQEAQEAUHg6iTQQ/8p5s/4VFJ4ETYgiUdkCgKCgCAgCAgCgoAgIAh0JQIibKArjYaQRRAQBAQBQUAQEAQEAUFAksA1bbzWxv0B721ehDvsp/BIsrJlqhD3wgfYnBLXertBOcXFNbIJmFX98IvnXsc7mzfjk/XzcUubxok2VWnX+MoW7wpdqIRu7iPQJdFm9B2UTBHXQ7fuAZyP4O+T63mTHS+/5zJ17RrE+HTt8bnc0gVPfwMff7wZG/6+GJOHuDjZ73ILJNoTBK4AgWs65tWLtsDan65BlatX2a7AYIgmWxKoH/4rPBGjxJ7Fv8XbuS3Ow5KF6kqPb9HYe2AaW46oJWw/2OZkjB6IYra3qjbYcpIX1m+GNoPtMet5spwmteZOFxXR9jRr/w1tJl/ZdUmT6NhTdkiBQ0r/GtoNessXl0IiaSso2nt2GDvyleo7TluJpR6Aj20fV15+y4qdP6mg+zWdkDWKNrsPpZMR2NZox88gZNNB+JWwrd947VP5hBhgDBn3kawPtKdvNsm36ZBM+fjts13ydYm0lVoC7e+rsW2ltr65/8496ujPUuPDH3/aJpXDhyevVPu8snz5jDDT3rwFM2krsJF0oADjS1uNqbfuR8RhOaeT8ce/WUZ6kJqRCIyjeUgnomltR//y+idfv13X39S+u/sDj+G5jXPxq4/7IGHhK/jdlDvwxcs7XW7izqtH5AsCVzOBa9p49cn/CqtXX83D171lN4cHokftGRw6LedHqzWLrjq+ZhUteJQX0olZtIn+rOGtBffgG2VdIcJf/Iyd42RP5SPpEIeHlAhvtSepREOnfkRoqs5+gYrt12pJftDPGUv2Wx5Clu6CyqihvWjvRGnyRZuRzsuXaLMpq6YKik9/RlCxAZdoP+DqybeiIkWJHgv20RumvPrJExVD/zKz4a+rQqMqBBfowIVSKt/njwdklCchJNsHSseMIZ5kuK//0nqIxUzH/svoX0dc4mZ8+ONPhpokH5nCuWmfV5ovH52dPvMe2pe3lPZu3kan79IBJYm3o2HOXahdtEPGXsO88W+W8PyI26gdeiBydZyo2/7x9E9m/TxQnHyloQiHc8/BHBMI9ojm6gQiThUiWxC4qgl0W+NVETUas5Km4Pbh0TS5q1BOhxS8v2odvi9rRP3NT+G9xffS4QW0aW/DD3h1xisOx8ha93l9wrgX+zQ34ta+PeFTm4+v1q7Eu1kV9sE2IxJjnnkN0+MHoRflf7/hNazMYAePs6TBdROfxuwJI9E3SE2HHJzEtxvW4O1MOh3HliJmv4lV/XfhlYwoTJ04CoOCFKjJ+QiPLf4c8S+9A6n2feIexbwpt2NAVBD1wYiy0wewbd0GfJHPjg+1Jnf1v7R4K4riZrotz9i8P+86FBb6Y1jfOvzw8TdoHP8w4vx0+GLZn/DuUYPloIfbZv8Ws+KHoTftp2woLcKp7e/gxe0/2dtnfzQd71ZFx7vx/X0tirb80MbCUuNr6D8Nby27A1kLUxxO7Qgg5v/Ak6Ur8cTqTLusHSa/U9fUeT9Dm8eOfdXSaVet+10dczOqEweQZ5adyUo/rroCBKXuQ68Cq+fRUkITQeED9OM7jAaguhy+qXvpdCV25IMRPgXWk5ysNdNZmpPJYMk+gB62Q8DMvkHULnkOR9IMMJBOp9GJTc7JUAtfqsc5kKDRP8J6stSqQ/ArYANzAVGp2dD/ZQQqB2YjuFw6P5T6bUkS8mvTHPdXriA/ZxjKU8JRH6KAxsir/xy0r37t0JtyMljDUZUcgToKi/Az8MobaRN49+33rNCgnnlcD+1BdGaFhU/vTT/j7PPXWfofajmIgHn/yHPIrgulWyx5DpXkOexr8xzyxteT8eGPvzSfXk23KLfjY0PrRj+awBsj+tIhI+QBt3jnyft96gzCLd5pnn7SoRxaOngh+wQC8qz3s6gdp6AfF4vqSCUZr9Y54L5+Xv+s25qbfSNQOTUEPelAiwvP3eWgL9L94+m/dfxpbvPqb91im7+5COuJguo2lxQFBIGrn0C3jHk1Bd6BuS/NQzz24p2Fc/DMvFeQmqtEVJB18dYn6008OWkSxi/7ln56Wycz1PCPGQ6vLS/giRlJeGb7Jdwz7xncG9iMyycuEaP1m7F03kKsPOqDsXOm22NnwyYuwZIJ/shZ9xc8O3se/rS9BrEpC/BY/5aHcnv3fRAzhp9G6rxH8TCdpLX8y5MWYXjt+wWqUbLrX1i5cB6enPcS3tUPxOMv/K5VTKir+mupdl55s58KhVv+gmWHvTCajOQzKxbhjZxgjB8fa4nzVd73JObHe2P/X+djNvVv0dr/4FSD8ykYdLzsvDfx1rpnkRDouGjemre7b3zUrDVTmw1fqfH1zd+NDH0IRsWTcWhLxsDbcPeQOmSlH3VoqwPkN5C1WN32cICLGuKVkYmwpZ8i4sU0Mn6CUJkyGg32R03Kj6VjV3PoeNBFn9EPvRJ1yeSZIuPOOV0KoX4OM9ORtAU2Q5R5tsaRgVCLwOXbELrqOC2x0zXO58UPuxUF6/4fdKsn0XGiN6DB31q3WWUdSy8Hb5XCSAaFqicMZHTw8q3yyZefGXLlYyPJU30O6mqzzPpbUqhnPI0XoWpH+Vbte5MxFkksTpyzG/ZqHZ2gRR5og+Vhg541Eu+mE8Y0UG9KQ8T8z6BIq0Mjeauro633D+nx9Wx8+OPvfAWZlg58ZI+PG/1g5Rv9o1D8HOkYKNxj6TZELvqKdBW4yE5rc0qt9ZPCg07RQ9iw/jadU0E/SkvzqAQhp6yGa1vqZ8217p8PPbzdTg8gBxCkc3OktJv+ydNvGfWTXD7tvD80IWyoZYa4VeecuYrPgkB3J9AtjdfgcRNxO/Zh3bKPsC+/FOX6k8jcuAZbc+W78LxzvsAHWeU0/kac+/Jj7GkYhvvjKQbLklTwOv1f/GPbQeTrc7FrSzryVVoMjfKmZcob8ciECORtXIF/ZR6HvkyPk9vfwoenIxA3bmALfVLgGLat+gzZVQ0w0TLQsYwse75U+xU738b67fuQk6+39O3bjTtxwm8QYge0dKS7qp9+ZsErr6zU4dDR0/j+8FkYq37G0dx8HD56FqrAAMsSVRAt5ysr87E/qxBl1D9d1m6k7iQjqANTo6YfEuKiodTno4AM7o5KChRhx2E9QuNGY6DN/FDHjcGI2iP4mrzKHZmCM7+D9o1jLeJd5dQfnnGQ4u/05Pm8AHVJBfpuPUa/UbT8TZ4ne9IdQ1RaCdQVNYje9AN5UINREdt8RG3TdXp2jGl1AYJPWH+kzd5kCMb6AjsOwp88W5q8PPjsaFoxsJbqmXMc3ut3IWT5f+G16QwZEregJHk48wHDq6KUjGlvmBIGw0TVmL19UDh5qLWgRs3Nlyv/hZjR0G2YiYI1D5ChXYmQFfugpi7w2nfma/YORn0i9Xn/UYvnWW55d+2bNT40/elBrfoidI9MgO7VeDSoqGKmOiFkvHuTZzeBDNxNeylGkwxuNj67D5JF2xPVY0It4kmNr6fj49x/5/F3znfmI2d8pPSDlS+MH0n/n4+IVUfIO38BqopKaHdkkifV+QEXaC0fO56SjN3iCJSsnEE6MJV4KhC0Yq995aAt9bvqX9kYWrEILUTkpxS24yJJ9U+O/vDqb2qyvfeHpvJVej2qo27EPcNDWj17uuiW+EoQ6FYEumHYgApRQ6LI6PkKR1zFMskYPgUaUFlahqbFV6WxCLoqM26P6kOl2RKrEQYy2pq8tl61VThPtw8Vrd8YwwdQqEBPDE5ej4+TWzbWUBZguck0mdDG0p9xwtD6hi7d/lmY+4/FE0kTcceQaATb14yqcM7pbXx39fPLN8BIQl5sMFJYhREXSeYG+q9ZRd4k+vtMehqyx8/Cn9ZehxwybPNzMvDfXTkobcHbiB9fnoaJMng7X8Lepn1nUj8oak/igxe+to+D83Xt/XxuVzpOT7gXd/V/H3n5GoyJH4q6w6/hWAfJ3165msoZI7QonnkTLc+TEWQf03qY7E4WMiOLq+1GscJEMcHlZOBHs0eLpthUZljSw1Y8GbRp39lPI7kUSp9V9dDomg31QF0lSowUK2hLwZnN4R9+eRWoMfSgZfehtCz+Ey2LV9HybyZK59yKojVkBNBcQXru/2fvXOCbqrL9/0vapO/3g5a24WUBLaCtWlCqF9Siw/DXgcFBGEAFveCjI/JQrwOCwJ0BcRAHxgEVrgMoMoOgDqIICgIdoChFWl5FCqRN36VNadOStMl/nSRt0zY5J+kLWtb+fNDm7LP3Xvu79zlnnXXWXpvaFz4PC0kqXzhHWn6fjONwX3iGrHVB0D4Wj9Kpt8LzrUzqszP1W0Uh/9icFLIA6jLQc6PG+qriXHlH7TexHZaSp6G2polrhZHkRQB99p75O6hn1sth/X8JKb6UxMa37ePTeD+xN/5NJbLHRzhDfHzE5wcV70tzQX0RCgdGzXoZ7MtHludR5NISWQbvlQfgq3VHUfJd9OXhPpoPP8CrgkbAyfoF/+zm4y9YeqvHB8B/9WGzfCY7T0Dx/onPH2fqbzoGrf/lk/YxPjj1Z7y65AP8puowlkx7Gz+18pnXeim4JBO4PgTsXLrXR5D2blXZwlvPtRY8SEurVzSFz/igf82/rDqqUaYvxvdvpGBNlsQnY1IIHZ3hqH1hz99Jr83A/Rc/xdspXyOjmKy23g9hsWChaJ7s1O9S+eb1KS2Pbs9Lu7BoxgnExccjnv4lTllEVukNeJn8dQXLbluTsJr2d9vJ8vraYvJbfhB7qV5bL8621q/UHMN3mgn4DbkOfFCuIpeBCqRtPeeye0Jb5bBfPhD5s5Po4X+cPjlnQVlhhHmF9ipa3e9iujo4liy2WoQcbUbPxQecj7qEVEYVqgMElwEjPLOzoHolC3X+pIwZ9JAbIslCemuDi4RUvjPdkNXWkO+u8K8MfmoZ9f9uFA46i56ZtZLtW+r3gfrFZFIkLyNyeSbcbRQpZ+Rz1H7kWfLfNJAFnKJEqPbsoxcDQQGKsny9LRVe8ygZyKK9/HOr/2vz3joxvm0cn/oWHY6/+QTHfJpLLPW76fywfNqXKiPk25PP6BVNi+HIQk2r/0MzLU7aMRuPI2dVMorpRUy1y9nFm/b7V60iK3xAMCrmTwI5KDSmqeQeM/wYov/3TIs9012Z/62p3xlW9s6pSvw9no27ii8XvIaPT5XeIPcve5LyMSbQ/gS6oduAAZosDWroc8oQF+OC1uMVlFXvqN6gZS7mZFL0RGy4AUWaPMkRUBRdhNrgj/5x4ZLnOjpBrP3awFjcFqjFsR0WxVWoo6pPH0RYFUtHddYfb2v5+nqE1a5nUr/CJ2uWYtraw6jrfxeGeDedTu6BYQgLC3Ra6beVvVZ3GV+l5cBI4xDTxheR5kwE14HDh3LNrgN3JCZhUPlJHDxlXc1kc3Jb5G/eprO/jf60iCqALKO7LIqrUM4QSda8JnOZlMjIAPNnfCGZ3MlqGkovFvSJtjF5ojy5F4WZOgcvawgrIc+thB7ZBiV0oRbfVeFYTSgt+hJ5M6sW2qdFN17apoqJW0UN3KqNKEsQ3GHKESIodjbJcb4z8jepin640UtaU59Jx/VbFZfQfFJcf4TwVd9eclze7tnm9mW15WT1Jiv3gLAGZxa9qgfx05mt2XItvSgYPKHr12jJtq1Nanzbb3zsj79FFik+ro1P0/lBll+yzkMVDoOoacSBfAqaiC3monXeeQkVOlO/4/4JFvUer3/e8C9sYSqNF43nV7sRsfZCC8VV4OXK/G9N/fZmmzPHIqOiEKAR3J3sK67CglPh/ktXNycm0O0IdEPllT7s79tBHq8JmPHabzGsdzhdwL0xaMxT+FV/0btpk8Gt7fMInh8zBFFU9u4Zk3EfzuL7Q4IPrHiSG07ik9256DFuNmaNHEzlo6CKuxePzHgFz97hvHO9o/bdqnKhrgpAbGJv8z3e6B2LZycngTztnEptLS800nPUU5g+KgF96MYYEBaLMUl94V+eh1ydrW8qLXhKebdNC7ZqyHJMMQtaPsuc6qn4SSWHUnEx/D6kjBuAq+mHcbKFX23b5XckgeAnWhMThCqV9bESEQQd/Tb4yyHTkXKpI+UnPsQskRDzsnD8LS2rUt0KTXI49CH+yKFQUlBcQcjxRltSLbkeoJ8Jsv2XmzyQZbXk33qc7P3Jt6GWLgcTLUAqH03WLmsSfDbVM+6miBQ9UdU3BJrhd+DKdPKbvUChq6w+i9UDboF6RJQ5Xz0iEZVTe1OdGQ1KslS+uSkH8hu9opq0XxbfF7kpFOpLV4SwsxbzqXj9nlT+Iep7Fby3nYch1MK2OoaUfevlL1Zeuv0qWvyWS37DCchJDEF1TCQKJ9L4qC18ZLW0XH8XuRY9dj9Z8sJofHxQNSCa4on+F4oHuUmOb3uMj4DX0fjTMiFJPmLj48z8iD6UQVXEmP2kq8iVxRASRPOEImj0bXzcOJJPXkE+1WpSUEcnQjsgANfo2siZmECWbXo5SLd8QRCvX7x/gkXdo6Ci4Z9nvvWFi1xAlKV6s89yW+a/VP1mtu2U6nyElznHfvqR01Zg3bqleLx3i7eBdpKAq2EC14+A89rc9ZPR5Zbdyw/jnTdkmDZjAp5ZNonCSZWTNfYY/nnUaA7z9Mhf/ooZfRpvpPO2fmZuI2f7XLy0uYDsfHpcPbofvyQ+h7en9aBQV6fw9V/WYFe5YAGQ1vevbF6K+VVP46kJ8+jTvi8tbipC3qUT2FFs/awo0SOx9uWkZm2mRV6vzJyPDQ+T721ZMU7v3IcTfe6TqNWSLSjXbSkv1HK1yhsxE57Hm9OC4UcRBoVQXWuXbaLlZ7bKq1PiOHeScO91cq2d9Phmm9tUFqeS68AUmgel+H7fKefkaKezDJEDUPQm+bTWp18/jJJf04+vvoLqs2IEUfiesqkPIGckPcS1pJDuIZ/SfrE2rdM8PH4BGHQvxVglH9aSQnitPdgkBmaesFBLp0GPFrFdm1cMWwAAIABJREFUhQUx3yNn5r3IW0Wf+nVkrc0gZw+VZbGXrJYU24AI1E6NRak33R7M+T8hcuNpm4VnpHSPvhOloeTbKcR/PXQAPbepba4MqXzH8pvcBTNpIGon9kWp4DtKbgm4kEMxP4+Rv2P9/HJcv4nKYjD1heLD6maPsXm0kwvC8m0IPyf4hIqUFzZFkGg/PDUV6gDyy5z6MIqFxVsXaBOEtScb+Kh2fUdfXxJJgX0ABdMFRsTwQi68S4xkuZUa3/YYH8DR+EvzEaaZ4/Ex+zhLzA95hYYs3ocoVNbtKJ1Piqc1VJZHRuP9wZF8dHdB1Or9tAlGPLSzH4VW4EuhxrD2W4RYX57E6pfunzD+jlP7zH/H9bdnjofVk92+65kCfkpyntMXoqhcvM/tKRPXxQQ6i4BMpVJ1kMbRWV1o73YscV6fLVqBJ9ekt3flTtR3vdt3QsROOqX6jpew7bVetMPWolbtsNVJYnIzTIAJMIFOJSC4sj20gHbYMnyMJ+3ssCWsbXh67TIkZS7Fc/Qcc/Ldv1P7wI0xgbYQkDYjtqV2LssE2kDA89Tn+DDdiKGLP8Ln6+e1iGPbhqq5KBNgAkygSxIQorHs2LoSvw+8gE+3Hra7u5Y+6jbE+ZzGzq0nWXHtkqPMQksR6JZuA1Kd5vyuQUBmuIwfls/FD11DXJaSCTABJtDhBIRoLOM2izfjofkC86Z8IX4S5zKBLkyA3Qa68OCx6EyACTABJsAEmAATuNkIsNvAzTbi3F8mwASYABNgAkyACXRhAje18lqV+BI2ffo67nEpHqwCiQs+waezEzskhFMXnkssOhNgAkyACTABJsAEOpzATe3z6kYhsI4e8kZ5N12KmTfiQdSOKEHUop9twhx1+JySbMAQ0xf54ymUk4q2gaCdirD+U6hS6wO+KKBOjgeG065FkcJ2pxSHMYNCEW05Dk9rsH0h9mnOVApFNJi2P/W2hNJRbjtKe8k7u/uOpIgw+vdD7orbRXZKkq7jRuUvLTmfwQSYABNgAkzgxiVwU1tePS/txZo1X3ZcfNIbd9yvq2QmBU27Egr0vu2cHTloZ6J4+peWQfuPfw1fip+JyP4omn0XLCHqae/zqQ9S3NNqiv25A5HzdtEuUgroZ96PqpCmOzDZqZwPMQEmwASYABNgAl2cQLe1vMqi7sX0aRMwLC4GvrRJQQltUvDx6nU4XGxEzR3PY9MbD9HmBaAgzj/irSl/xuGG/cQtcVafMRzEEe8huCvaF55Vl7B37Sp8dKK0YbhNiMTwF1dgclI/+FH+4Q0rsCqVdi8yJ2/cMvYFzBgzGNFBStrk4Dx+2PA3fJBGu+9YU8SM97C69z78OTUKE8cORb8gGSoyP8PiN7Yh2xrsX9jeL4jiqZcXl7druBNtPO12M7oPWT6FHb8oILk6B0Ebj8Avx7oNIzlEqJPJsplMOy+F0hShIOFysmxGN1g2afvFKfcCQwXLJymMJRSofs8R2utdegcyofvK7F+gor0CTO4q5ExvQGL94wpUb31nc7CEQnGHozwlAtURMvgVUAB6FQV+zziHgGzLdqhRuy5AMzIB2kg5Beqv70Pzepv+NkREUxB1svAOpKD21iDq4euPUc9joVkxrOFk3fzJUJt/FSN01jfwtgbKVz/xGCnQl0jJJuvw6F5kQSYOZ39G1FuZN5SVW5wC5zIBJsAEmAAT6HoEuqXyWht4D15ZPAdDLm3B2tcO4BdDAPqOHAVVEO3ZTcqr54n38Oy49yD4vG6f3XLnZxOU8I+Pg9viBXjmhBaBY/6I1XNepG0ql2AvbdstJM/E0bh36/tYOucqIifMwqszJ+No2ttmJThs7CIsGnMNe9b9CasuXoX30EmYPfsVPPXaq/joUqOPgnv0o5gStw0b5ryHM/pQxMaHU8y++j0jaHtSOr4oPhsfTFto3d3LtQnmqatGpbbl/ivXvIlDahrCNmrhZvBAweh7UDb7XnjMOwglmTfVox8gxdUI5cY9CFbXonDwYBhnjoB26VcIyDGiaPjdpLi6wWf1lwigfd6raW/3soCO2+uiRpDXcA0KrdAG7Th1gbZEHNgbev9CKCvcoRmqol2MChBywTnF1egfhfxXR1JHf0bI0n1Q6hTIHxqLa6SAemZnQTUtyzm3AbIIY0AGIhYehrvBC9qBgptDY3LE37VR5LOZABNgAkyACTABWwLdUnkNHjkWw3AE7yz7DEfMFtUilGw+jzQXxt4982t8csJiSbyyezsOjP0fPJIUhr07ad9yss+5XfwGf9/xE4Tdts9uPYQJifdgQJQ7UjW34okxEcje/BL+kWbZixs738e/hv8d40f2xUf/1/ipXEYOCztoq9cMnbB9Xx7OpOa5IKH0qcFp/0GwnU6Hp/5kU7gS0dvOIHfoYFSS5TIoP5wUV7JGbvmCfEgt+37H7P+J9mkfC+3wUAR8WoSaCC9SFssQcK7SvEGhX2Y2bRPbMcnkHoya0ZHA0QPwEHbuhLB95l7a3pS23lw1xdKoNh9BKw9a86XlyE0aTCddQsTqk2ZlXUiqXXZASVZ1BeHrz0JplqsKQelVTUo44i9ZLZ/ABJgAE2ACTIAJOCTQDZVXBaL6R0Gu2YuTDa4ADvtvN0NG+3eXFRWbFVMhyQ15UJebMCyqJ/0SlFcDdMUaWD5aA25V5bQjtwIKJeWE9yFXAV/EpqzH9pSm1euLA8wRCuptr4aiX3DOrLjaSwb8vGQSxtrLauMxQ4QK+VNvp8/epKQ2RFqoQS15ERgDgugTOH2Wn/k7qGc2a6jE03ygZ+oF5I0ciry3aMHV2WLgXA6ijhbAzaoICueop9Bn9ZEBlgoMGvR44Tt42OQ71wUf5KSQhVSXgZ4bNbB4tJLP6yjaVz6yDN4rD8BX646i5LvIcnwf3Bf+AK/6z/oO2yd/277Ub/VFKFyWp5nU5E5hUVyd6w2fxQSYABNgAkyACbSdQDdUXi1QlFZVp7WIPEgRrVc0BTcC8tR0OjSWTF+M799IwZqslp/sm8ijN5Ca3NkpEPmzk0h5O46IeVn02d0Io1cf5K66q1EQQ6XoKnv3gizEzNKgNCESukH0yX5iMjTD0xD91jnUrwCM+mIvavfQ535zMjRYOJ3vLfnVvphMivRlRC7PhLtV0TR6kR/uY6HAxu0IzTSbPMkSexw5q5JRnORPFlTyv6XU9vadkNTgnJuCEzXxKUyACTABJsAEmICTBLphtAEDNFka1EQNwRCX4rc2EhOUVe+o3iC7ojmZFD0RG25AkUb6s76i6CLUBn/0j6PP721M7oFhCAsLdFppdqY5oz8tUwuogfcui+IqlDFEkrXVykpO7gAweELXT9wRQFZbhdA0Wni14XsErr9AVtxeMNi8CrlVVMGjoML6r9rFVwmr4hqaT4rrj1BYdFRL9xT0SiG8VTRJViXSq1EAx+2TpTubHJdV4U3kbV4jDBaLuLFFWy3ObPUBYUGeML4tva5bXSUXZAJMgAkwASbQ7Ql0Q+WVPuzv20EerwmY8dpvMax3OCkIvTFozFP4VX/nDc21fR7B82OGIIrK3j1jMu7DWXx/SHo1vdxwEp/szkWPcbMxa+RgKh8FVdy9eGTGK3j2DmF1v7OJFmylvIv3180lF9R6C6azZR2fJ9PRgicdKafxIealYULM1MLxtzQUkNVSRIRd5Brx2P3k5xoGfYgPqgZEkxvAf6F4kEWOouF3Qj0igvI8YQgJQflwUtS1FU3cBhxLIEQZ8ERNTBCqVFa1LSIIOvpt8BemoyfUMx4iZbgK3tvOwxBqyauOCUAdDZ+8ooisxqRYjk6EdkAArlHZnIkJFPVAB+/0ekcPsdaB6EMZdEIMClLiUBXjS30Iov5QBIa+jZeDvJqcQohTTXwEtSsnmcXrbE1u5LQVWLduKR7v3YEacmsE4zJMgAkwASbABG5gAh3wSL7+vXUvP4x33pBh2owJeGbZJAqJVU7W2GP451EjKWw98chf/ooZfRoVlXlbPzMLnbN9Ll7aXEBWQj2uHt2PXxKfw9vTelCoq1P4+i9rrCv+pfX9K5uXYn7V03hqwjy8neILeVkR8i6dwI7ia9cdjqy2GEHrT6Fs6gPIGUlKICmd2JNFymJsg2yqXd+R9ZhCZT1Gi6Kmk/+rlhS5C7nwLrFYI+UGUmIpQkHBRGF1PXnwUqit4NXHzIu3nEmGyAEoepN8buvTrx9Gya/px1dfIeYzUuQGUzgs7wDoZo8BxRWwphp4Lt+G8HNXEbV6PzRT46Gd/Si0CpKJfE+x9luEZDvyH24qlbxCQxbdQxQq63aUzifF1xoqyyPDNmJCMby3XIBu4ghoRgk9axoqq2mNrfmlgJ+SnFv0hSgqd07u1rTCZZgAE2ACTIAJdDcCMpVK1XExjrokLUuc12eLVuDJNeldsgcs9I1PwETxZJ9euwxJmUvxHM2zbrrJ240/ECwhE2ACTIAJdDkC0mbELtclFpgJ3PgE9FG3Ic7nNHZuPcmK640/XCwhE2ACTIAJ3EAEnP3SewOJzKIwga5PwEPzBeZN+aLrd4R7wASYABNgAkygkwmw20AnA+fmmAATYAJMgAkwASbABFpPgN0GWs+OSzIBJsAEmAATYAJMgAl0MoFuqbzKRi3EP9e/hDudjC5aEzUJqz5dicdpe1fbVBt4Fyb/+e/Ysn07tm/fhFfv4IicnTw/uTkmwASYABNgAkyACTQhwD6vIhMibOxkPOqTgWUz5uJslQkGXWPgJpFiTmfljXgQtSNKELXoZ7RfJFenm2/TiUb/fshdcbvoTlxduX9tgsOFmQATYAJMgAkwgQ4jwMqrQ7QKRAYFwU1zGhnFVbwi3CEnzmACTIAJMAEmwASYQOcRuCmUV9/hs7BiZj+cW/0mVqWVwOgdi0dSXsDkeBU8qrJwaF+ODXEFEhd8gtfi622hf8DW7X+g/CocXTwTy09UNZwrbO8ZRJ4E5cXl7azc0vaoU+4FhoZRsH4ZUKKljQSOQLWncYcvQ0Q0BdmPBwYGkjw1tInAZYSvPwbPUkvYXvUTj9HGA5eANNpIYHQv2hKW6jn7M6LW66H50yB4rvySAv7XWvsip12tfkttpUP1zmWoXxlPew9QWe8IIJI2KdCVwmvjAYRlXkNdSH9oVgxrYKCbPxlq86/2DuLf0AT/wQSYABNgAkyACTCBBgLdXnlVNlNcSSPD4Jmv4Pk+2Vj3xts4gVsxfvY0qJQFSDVjMSBtyeMYBwVuffVDLMX/4Ynl++0op7R965z3sCg+Gx9MW2jdfcu1meWpq0alVt+iUNHwu0lxdYPP6i8RkG9CtaoHygIa95Iw+kch/9WRtLPVzwhZug9KnQL5Q2NxjRTUeuXVXGlkf2BABiIWHoa7wQvagb5wKyVF+MKdqBneA6ZzGrNXsNErkna1ImV9Y65VFvp7cA/a0WoXKbgG5I64H9Uz6d/re+FVmgXVtCw44zbgqH8tOswHmAATYAJMgAkwASbgJIFuuWCrvu9+w1/CuzYWV+G4UXE7RiX64sz2Dfg6Kxf5WXvw9tYM2hC281Nw2n/I0nmmhb9rTYQXbclajoBzlXCvqIJfZjZUqaUNAuYmDaa/LyFi9Un45FRCUVoG1a40BLTYHvUKWWPPQllhhLy6CkHptI0qWWm9UklJTYiFwfrqUkJ/w6BBxHGy4Nans+cQek7YztaI6P2nKD8MxQmuLVhz1L/OJ80tMgEmwASYABNgAt2FQLe1vLoH3YOZKUp4GE5jt6asYbz04X0QqazAZZtjBo0GBfpQF8fUgJ+XTMJYF0s5c3rP1AvIGzkUeW8F06f+YuBcDqKOFsDN/JWf3jf6kquA+iIU9V/9HVWaXwhldcvM0KPZyJl4HwoSPKFKI3V2OFleMw5A2VBfHbkqVAgtWRMtVCshy28MuSCgsmWFfIQJMAEmwASYABNgAp1EoNtaXmX6YhxZuRBrLsbg9y+OQ4wtUDKz6g2Nn+Hl+htrZ3n3gizEzNoO721ZJLUfMDEZmtkDyAbqYjKQEmonyWrzgeMEYXg0DOSCgH7X4L2fjtkmRbP4B81/26mXDzEBJsAEmAATYAJMoKMJdFvl1VD1Cw6mZeKb1ZuQET0Ocyf3Jy9WQFl0EfkGf/QIo4VI1mQM74lgpeD96VpyDwxDWFigud72TrLaKoSm/QLVhu8RuP4CKZi9rJ/5SYXNLgdU4Q2f/V1v24ge+2mR2sBbkD/6FrKq5iCoicsBKa6RAahXfU3upECHUrvkotCQDBZV2tiGzgsL3gR+rjkjuN5bLsEEmAATYAJMgAl0HwLdVnmtHyJF8V6s2JSJ4DEpeKq/F+SGn/FleiVuG/Mr9FXIYFL0wvixCRA+iLuWaMFWyrt4f91cJAe2b5TWouF3Qj0iAvoQTxhCQlA+PJx8YCusbgNA9KEMEjUGBSlxqKJP+YaQIDr/Dmj7Oj+cHtnnSWklV4lRPYDUrBZ+t1DdCk1yOMkQRC4GFNWAogmEHW+MtCCvJkVW54ma+AjUucthaoUDSuS0FVi3bike790GDdi1QeOzmQATYAJMgAkwgS5OoBUqR9frcfW3a7B66F8x98WncXTO33Fi7Vv4iEJlvb7hUciripGVfgKFfSgs1A2S5AZShkffg4KJgkpNLg3qHASvPob6wZJXaBC5/BCFyrodpfMT6BxLqCyPjEZXCOmukPU2lUJvjXdHyNGKZqeTzfU4WXvj7yUZ/EnJzYfX2lR4VdjWXwzvLRegmzgCmlGCZK6GylLAT6mETF+IonKXHSKku8dnMAEmwASYABNgAt2SgEylUrmi8XRLCDdnpyi267T/R+4AWYh+64zN4iyFJc5r/j6oNhV0GBoTYvH02mVIylyK59ak2wlF1mFNc8VMgAkwASbABJhAFybg/HfmLtxJFr0pAZOXJyoHDKRwWRSSa/9FG8W180jpo25DnM9p7Nx6khXXzsPOLTEBJsAEmAAT6PIEbgq3gS4/Su3aAU/kpNAOWhRhAEePIDrNJrZru7YjXpmH5gvMm/KF+EmcywSYABNgAkyACTCBZgTYbYCnBBNgAkyACTABJsAEmECXIcBuA11mqFhQJsAEmAATYAJMgAkwgW6pvMpGLcQ/17+EO+Fc7NaaqElY9elKPB7V1IuiNvAuTP7z37Fl+3Zs374Jr97BEUltLxkhzNh/vfo2Pvz0U3y+fh7upNBjnJgAE2ACTIAJMAEm0JEE2OdVhG7Y2Ml41CcDy2bMxdkqEww62iaVUwOBmrjf4Jl4OQ688d/4IKt5uC0GxQSYABNgAkyACTCB9ifAyqtDpgpEBgXBTXMaGcVVvCLeDidTeCA8qi7j+MWrdnL5EBNgAkyACTABJsAE2p/ATaG8+g6fhRUz++Hc6jexKq0ERu9YPEKbFEyOV5HylYVD+2ir1IakQOKCT/BafP2uWX/A1u1/oNwqHF08E8tPmJC0+EM8YziII95DcFe0LzyrLmHv2lX46ESpuRbPxCcxZ8Iw9IkKQgipvcUXj2HHug34+lLj9qoRM97D6t778OfUKEwcOxT9gmSoyPwMi9/YhrzEqQ7L19zxPD6ecwtyc/0xMLoaP27/HsaHf4dEHzW+XvYmPjqlgwk9cfeM/8b0pIHoQZ4OuqI8XNj5IRbuPN1kBgnbswZRfnlxeduUc9pHgRMTYAJMgAkwASbABDqDQLdXXpXNFFfAG4NnvoLn+2Rj3Rtv4wRuxfjZ06BSFiDVTNyAtCWPYxwUuPXVD7EU/4cnlu+3Ue68STlUwj8+Dm6LF+CZE1oEjvkjVs95EbkpS7CXdovyCVSiYN8/8EVmDgoM3ug/9gXMWvAcima+jZ8MjXtCuEc/iilx27Bhzns4ow9FbHw4qcgm0fKCjCYfBXK3/gmfPzAXb5CS/PEbryN17Ot46eEEfHzqEGpHPYt5Se74+i/z8JXGCK+oWIwIb76LFW1vS+0uis/GB9MWYlc57arlYvJUCtu61rZN8XWxTT6dCTABJsAEmAATuLkJdGvl1W/4S3jXxuIqDLVRcTtGJfrizAayhGYV0pFcvL31bgxPCXNpJrhnfo1PTtD2qpSu7N6OA2P/B48khWHvzkKUfvsB1tvUlr/5W/wq6VEk9HHHT1mNZkoZzmDH6n8jQycolnk4k5pnKSVSXlBe5WVqHD91EYeDCmHon4dTWZeQfaoQisQACBvKyuhzvrzsFI6eyKVNW0lZLtZgo4087fGn0bsXkhNjINccRo7QBicmwASYABNgAkyACXQCgW6rvLoH3YOZKUp4GE5jt6asAaU+vA8ilRW4bHPMoNGggCyfziYZ9CgrKkZ9rXJDHtTlJgyL6klVFMLUewSemTYW9/SPQbCyvtZyXGm2Gt9Q9AvOmRXXpkm6vB4G0oGv6Q2Q0T/abgB6+r9J4U02YeDyoT3IeHg63lx7CzJJsb2UmYpv9mWiyMbqK1iYf14yCWObN+7E7+DJ7+DDcb0gqzqPTxZ818DBiaJ8ChNgAkyACTABJsAE2kSgW4bKEojI9MU4snIh1lyMwe9fHIcYW0x6UvZsFDk5KX6uJg/SEoWP5kIS3AhA/4TfJsRi0mszcH/V93g35QmMGzcOj05+Dyf0dqyT1C6J0iS5VL5ZWSgtoao8L+3CohkpWLjpIH4hpTxhyiKsWjAaPZqf38rfVza/jN9NfhnvX4zAhGkPIqiV9XAxJsAEmAATYAJMgAm4SqDbKq+Gql9wMC0T36zehIzocZg7ub9ZuVQWXUS+wR89wjwaWBnDe5KF1PkYpYKy6h3VG8HWGkyKnogNN6BIk4fawFjcFqjFsR1fU5QCi2pa1acPIpysv63l6zsl1wluCF/hkzVLMW3tYdT1vwtDvJsOt3tgGMLCAhuUcFcmT63uMr5Ky4GROMQ4GU/Xlfr5XCbABJgAE2ACTIAJ2CPQbZXX+s4qivdixaZMBI9JwVP9vSA3/Iwv0ytx25hfoS99xhcC7Y8fm2D2FXUl1fZ5BM+PGYKosN60sn8y7sNZfH+oBG5VuVBXBSA2sbdZKRQiGzw7OQkRTlbe1vJCMz1HPYXpoxLQhxTTgLBYjEnqC//yPOTqbK2/tGAr5V28v24ukgPrIys4KaT1tBqzxdq9Vcqvay3x2UyACTABJsAEmAATsBDotj6vtgNc/e0arB76V8x98WkcnfN3nFj7Fj6iUFmvb3gU8qpiZKWfQGEfZ9VLckmgj/1Xj+7HL4nP4e1pPVBXdIpW9q8xr9iX4yQ20yKsV2bOx4aHDdCVFeP0zn040ec+p+ac3NC28kIjV6u8ETPhebw5LRh+FL9ACNW1dtkmWh5mx3XBKakkThK0dNc9LyQq5WwmwASYABNgAkyACbQkIFOpVB2k0bRsrHsc8TbHeX22aAWeXJPePbrUyl5U3/EStr3Wi3bYWsQ7bLWSIRdjAkyACTABJsAEXCPQ7d0GXMPBZ7tCwPPU5/gw3Yihiz/C5+vn4c5m0RRcqYvPZQJMgAkwASbABJiAMwRuCrcBZ0DwOa4TkBku44flc/GD60W5BBNgAkyACTABJsAEWkWA3QZahY0LMQEmwASYABNgAkyACVwPAuw2cD2oc5tMgAkwASbABJgAE2ACrSLAyqsT2GqiJmHVpyvxeJTFy0I2aiH+uf4l3GknvqkJQ/Ds+s+wfft2878/j6qPButEQ3wKE2ACTIAJMAEmwASYgCgB9nkVxeN6poxCZX0w/bd4H7fhv9cvQF/Xq+jgEibc85IHZv5XIHpHesDzmgmXT9Vg06py/Pt8LbVtwp1TFJg2OhD9Kd+fFPTL6dVYT/m7L9d1sGxcPRNgAkyACTABJsAExAmw8irOp1vmyq+Y8P1GLS7l10LrYcKvpgdgwfJw5D+Rj2Oowz3DfFF0oBqfnyqDVmnCY88HY+mycJQ+WYAf7W1z2y0pcaeYABNgAkyACTCBG5EAK692RkXYFesR2sRgcrwKHlVZOLQvx85ZjYd8h8/Cipn9cG71m1iVViJ6riXTG7eMfQEzxgxGdJCSNjk4jx82/A0fpBVQtgKJC/6Bl/XfYDMSMHZQBPz0eTi8YQVWpeY3qdvdOxBBPkB5cbkLewTIkLrJgFSbmn5EKUYu74V7I93x42UT1rxQ3qSdY8piJC2g/F4K/HjesuWtE53kU5gAE2ACTIAJMAEm0O4E2Oe1BVJvDJ75Cp7vU4gtb/wBs5Z/ByQlQaWUtThTOKB0WXEFwsYuwqIx/shc9yfMnTEHb+6sQMLsV/BUb2GrKkvyjI9H791L8cyUKZi9j6yhMyfjniZxVGl71znvtWl7V6ElRbARj48NQGCpEZn59t0CPIS+k3tBXqn9/Aah+Q8mwASYABNgAkyACXQwAVZemwE2Km7HqERfnNm+AV9n5SI/aw/e3ppBG8K2TH7DX8K7LllcAaNiCJ4YE4HszSvxj7Sz0BRrcH7n+/jXxQgkjmz0kK3L2ouPTghWXAOy9x3CZYUKA6wLxlpK4voR/UMmfHs4Goe+6oXZvXyx/OVCfK83tqjI5FuH5ycEo2JvFXZfYeW1BSA+wASYABNgAkyACXQqAXYbaIZbH94HkcoKXNaUNeQYNBoU6EObnOkedA9mpijhYTiN3TbnSo2egeqPDvJFbMp6bE9pera+OKDhQG15cYPCLK8y4Bq5EyiUtucb8POSSRgr1aCDfMUR4IVnNPAJkeHBKf544ZUQnH+hCCdtfFpNSiPGLQnAmEoFZr1VhKsO6uLDTIAJMAEmwASYABPoLAKsvNojTWZWvcHUkCPXG1qcJdMX48jK95ExZi5mvjgOP/3PvyDuGdtYhVD2+zdSsCbLnj230XWgRaPteEBWKcP5U0IfTfgpqwSxO3rhyfu9MGevztyKoLiOXu6PF4N9MP+F4iZKbTuKwVUxASbABJgAE2ACTMAlAuw20AyXsugi8g3+6BHm0ZBjDO+J4GY+r4aqX3AwLRPfrN6EjOhxmDu5P9lGbZNWocU4AAAgAElEQVQBBtJ5FcqmRxVUv5rq7x8X7tJA2TvZPTAMYWGBzdq1d6Zzx8y+rZQExfWhxX6YS4rrgpeL8Z/Klu4EwnnCgjGhfVozxokJMAEmwASYABNgAp1CgJXXZpjlhp/xZXolbhvzK/SlBVImRS+MH5sAXwfDoSjeixWbMhE8JgVP9fdqOEsGDdI1evQa/ggGRwUhMNDbrGTKDSfxye5c9Bg3G7NGDkZUWBRUcffikRmv4Nk7vB20Yu8wLdhKedflBVvG4DrMW+aPJ0crMSxejsSH5FiwJBQJV2XYf7yGGrIorgsHBWDT+ivQRpoQFycz/4v0bbpoLXLaCqxbtxSP2yw0sycpH2MCTIAJMAEmwASYQHsRYLeBFiR1OL/2LXxEobJe3/Ao5FXFyEo/gcI+ES3OrD9Q/e0arB76V8x98WkcnfN3nDS7HOhwbMMGHJw9Ha+vfgyeOI0Ppi3ErvI6XNm8FPOrnsZTE+bh7RRfyMuKkHfpBHYUX6NyHfs+IdPLkEsK6qMUu3VaiMK8SUHB+WtY9WohthXQgiyK6zoywRcefm54bnkEnrPp9TezirHwqKDgCkkBP6USMn0hisrtW2ZtivKfTIAJMAEmwASYABNoFwIylUrV6NzZLlVyJTcDARNi8fTaZUjKXIrn1qS7EGf2ZqDDfWQCTIAJMAEmwAQ6ikDHmvk6Smqu97oT0Efdhjif09i59SQrrtd9NFgAJsAEmAATYAI3DwG2vN48Y809ZQJMgAkwASbABJhAlyfAltcuP4TcASbABJgAE2ACTIAJ3DwEWHm9ecaae8oEmAATYAJMgAkwgS5PgKMNtPMQmjAE/71+IX4VZAkrdW7tM/ifb6+0cytc3Y1AwOgfgdyUe4B+fiSOHu4r/4WembyFbtvGRg71y78DtAeh2qBpW1XXuXRnzY/aiFuR9+YtCFq4E34F3X39bfvNj44Zn/aTr6Onr1T/pfKdlc/R/Gyv+p2Vo33Oc358ne2fIz7tI2/3rYWV13YeWxlO4oPpv8X7uI2U2AXo66B+Q+BDWLJ2PK688QcHO205KOjC4bwRD6J2RAmiFv0MNxfKqaeNA5KaRbY99J0dZYIu5CmjgZHBwMbtUO2vpFYUUCfHA8OjQIFh6TeF1srIRviW4/Asdf7BenXQ7SgbH0t1UOxcQxVw9BiiN+WYA4nVhURCM/UuYGAg/aKdIM5S/RuPOVk/yffbJGBoCBBKcXUN1VT+MkK2/AQfIVSYCyk3mWTwLkT4vK+g0NVCXi2EDGt7/WL9M3r1Qe7f7rMjJcm+9p9QpQm7wZEMo0mpTo4m+UimC8RnfSMfk1cwcqYmAoPDLPn5hVBuO4qI9PoNgMXLOz8/7IhJh6Tbt1/O9qjj+SHN35n2Hdfv/PyzPz/ap/9ihJzpn1h58TxpvoaYvsgf3x9Q0X0hgB4x6z+FKtXeboL27h+2rUvlO5JUfP7Wl3I0Po5qFY5LX3/i9xDp8gbJ+5sUX2fHX6r/9vKdkV+Mn22evfrr8x1df3Di/uds/x3J2db7W1vmlyOZmh93xMeVT+mt1Q+ay3K9frPyer3I3+jtXvgZoRvVDVIqtNoWEl8ddDdZHelmbbOVLkBWyHj6l5YBf3U5jIoQVI5PQNFsOXr+8RicmXC6AQkoS+kHHDqBwC1ltFGEJ64GCDFwheQDzcwRpJ9lI2TpPigM3iiYeB+KUq45r6RXlEP2xS8IytehzjsA2vF3oZTk83jliFPyNYAIJcU6P5+U5mYP5jbVL9G/6lyEL/w3ReptTCWD7wQekyM8w7KNcdHw4fSbFPv1uxGWr0TxVFs+clJcH6RxK0LAyh3w1iqQP3oY9DPvR9Xru+BDLxji5a3tOjE/bES0+VOqffulbI+Kzw86U5S/VPsmiNcvMT62gtqdH9LtSxMQO6Oj65fiS8q5gh6hJbl0DygGpsc5FNb+/aPxdKl8RxU7NX+FwnbHx1GtluNyyetPXH2QLi89v8T5ujD+Uv23ky+T7L84vya5duoX8sWuP2l+LvRfTNRW399sKnXQP7FmnckT4+NM+e5yjjO6RHfpq9P9MKEn7p7x35ieNBA9aO9TXVEeLuz8EAt3njbX4Zn4JOZMGIY+tHNWCFn+ii8ew451G/D1JcHyKJ70YY/hnXVPUpRUa1r2KR6gP2U2mxjUZwnbrwZR++XF5e0cjkqwjpLlTbDMhdIUIMubnCxv0Q2WN5JAVwWvnDKSy34yeUWgbGIIfNefQuWr99ucdAWqt76z+V1CCmE4ylMiUB0ha/isaYiIRv5EstCaradknb1w2Wod9EDJYwPI0pqKmE3qhvYDrDUKn2LQzwTZ6uPwyRGUtUpEbcyA5k+DUNY3A6HZVuunw/4ZoNqTbiNfKdkpw1AyOxw1ITL4Wq3DjuWT0WftiWS1rLdl3wf1BsESWu824Ez9jvlL988ATxqXxkT7to0nC1fGMXiQEVlQ7muEcT1+ADFppWZ+Pbb8gsL5t1j5+JNFjLY+zjiHgGzLfI3adQGakQm0m5qclFdPifJWtVlkfmjj74B2dB9qR9gxjl5u1DkI2ngEfjmCVUqqfat13juCONPL0UC6ALQl8Np4EGGZOirvKTo/BEu8+PhKta8QrV96fKi7ovODXuxE+ddBnJ9guQ1CznSyrA+mrwe6UmCPrVuSVP+EMXA8/4QZJN6+FF8TlNm/QJVNcrqrSE6hxpbJ8f3Dcq5UPhzOD6n5LzU+Uvylrj9rXx3KJ15een4ZJfhKjb9JYn5K5YvLL/RefH4Kn93F7p/i159wfYvf/6T6LzW+1vETub+Zz3A4vlL9q5PgY2nf8fNH/PlolR6Oyzv/9bO+rhv1/6y82hkZ+ahnMS/JHV//ZR6+0hjhFRWLEeGNti6fQCUK9v0DX2TmoIAsf/3HvoBZC55D0cy38VMTK2TLypXFX+DVcV9A2m2Atn+d8x4WxWc37MzVsjbxI566alRqW36uU48mdTmZboIb9yBYXYvCwYNhJGumdulXCMix9nPgXchZN9TyWT3jLCK2nIGyon7ie9JDaRgpSKkIUitJfRRPNd6k6BmuQaG1lDf6RyH/1ZH0FPnZbD1V6sj6NzQW1wJk8NDSA1nYNyNdgZw/jiW3AVK0Sgrhs+UoQs7pyKpjURrdbDjLDPRAVvhCJygF2dX0ydyJ/llFFm60JSMiqY1iKJ2Qz7PUCNU7H1NpuknN+C21+yNUay46BGCvfjH5fHXS/bNtrC6ElMSBJniuzDErqiZ3ehmIpL/2X2lQ/JXqQuIfR3xImcyuoBcFUgIH9oben9wFKtyhGaoijaUAIRfoxipZ3jraIvPjmjDeqWkI26iFm8EDBeTCUDb7XnjMOwhlrXj7lh3mqHxCP2DLAURs1FH54ahOESzDu8lSLD4/mg9ES/7i7Zvc6eWojfNPfH6Ity/IL85PsCzRtaMqReDyA+YXw5LpdJ0q6q9C6frF5p9w/Yu335RwS77NR8Deb6n7h1S+2PyQmv+VktevK/1vfv1ZeutYPuHLhm1qXt7oxP3NHtHGY9LjLz4/aWq5cH9rLr9w/YrPT/H7p9T117zvLduX7r9T4ytyf4PghOfg/uQj+XyQ4kOuKW14Pgp8xMrbuu450g+aM75Rf7PyamdkgsIDacvWUzh6IhfFoJtNsQYbbc4r/fYDrLf5nb/5W/wq6VEk9HHHT1mWT7d2qu30Q8Fp/0FwWtNmzTeHZLrBb/mCfBwtW73G7P8J6uFjoR0eioBPi+CbeRY1maUIKKlFeWRv1I2/EwUpckT9b6bZd7Z4OFnEQnMRuZY+C4J8W0WSyT0YNaNJOTx6wGoZBHKTBlOJS4hYfZKUGUth1S6LoEZ/T3qrpVZG3wpsO4RwtQxFo4eiipQXz4W7yTJYRJZid9Qmx6L2whlSjjyRO54stULyVpLyRTZaif4Jp1bG34srKbdYypWQz+vKIw2yiMlnKSD9X0f1O8NfrH+A2bzakDQjyLdQm4PgcxaQJm/ip6AXEO01qJ8YQzfZcvRYSF8MBKNlCCn39KoRs3EvcmY+gIJVUyz1aPMRtPKgeXzM/CXKS82P8NSfbCSsRPS2M8gdOhiVZNkNJuVIrP2GguoziNpTYJ5vMVt+RE5CMkoT/OF1VGp+WJQDR/yph6Ltt3X+NR8fGxDWP8XbF04S4xeUT9dSArmrkI+2v9lyXgnPXSrUTBcWDQpJvH5n5p9Y+8L4CckxX6sYIv+Tun9I5ZurFpsfEvNXRDRzljP9r6+j+fXXULcD+Xz2NHW/al7eTeL+1h7zS6r/ruQ3l9/kLjU/xWs3379E7/9Nlf/m7UvNf2fGV+r+Zu6Bk+PbvLfO8BF7/kjfn0yiz1dbeezpB83lvZF/s/JqZ3TyDu1BxsPT8ebaW5CZdQmXMlPxzb5MFFmtfabeI/DMtLG4p38MgpX1FZTjisLRR3Y7jUgeMuDnJZNAtsd2TcaAIFpEQUrMzN9BPbNZ1SV046AUnGZxjxD+9skuRYXOgz77D6DPzqcRpO2F6vEB8F99GArSl0yiM8gHOSlkJdJloOdGjdUSSD5hfUl5Vl80l7efSGXJSEdMarG5TMz648hZ9QBKB/vAZ385uRekkZX7LuT9jZRo+lyPQ1lkORXcD+jW5UT/hPN8Mo7DfeEZsvYGQftYPEqn3grPtwTl3Bn57Ette9RR/ZCUr0i0f7ZtmNxpwVUSfSbb8x/7vrqltNBNW9PM9YPe/EfRJ+fIMnivPABfrTuKaOFZ2ez7iMcPENTbhmS3vPj8ENw2DBEq5E+9ndw7aEwaroka1ApeBIJlRqR9LzKcmF0N8slqaxVEVksLyUrooRVDCwCPCgfF5ofFAumIvzC+Yu1b+i9Wv/j8a2Dn8A/x9r3o64YYv7pQGm9FDbzVwtuIJQWqy+gLUL3yKl6/UiF9/Yu1X9+mY74OO27OECxlYvcPqXxL7VLzwyqDg/krLiF9pBCdv42lHV9/IvKhUXm1X77j55dU/53Ntye/9Px0pnax66/xO5+99qXvL+LXlyCd2PMvlNxhRO9PNuNrr6fSfJx5/ojxofuC5PPVnmRd75io6tH1utM+Ente2oVFM04gLj4e8fQvccoiPJK0AS+/8RUKyFt10mszcP/FT/F2ytfIKNbTQ/khLN5AfjxdJRkq4b38c6t/qLTQPuoSlEOF6gA3eAbQm3VAMCrmT4JZz6hPU8eR9ZYiAvzvGXNEAMH3Uv1iMp17GZHLM+HuUFG1rYR8f3VkuRZeEnIqG5QuWS0pYWbLIVmcBEtTdhZUr2ShTrASGvSQGyKR8zey1Na7SDjRP1ltDflOCf/K4EfW3dxVd6Nw0FkKddXoHtJUMtd+Oaq/Rz7VIyGfZP+solwdTJ7T3lqEHG30gZXpyJpuoBGgVd6qPftIsRVeMMg6LiiOpddotTT5wz4Wao4OEZppseLGbBReDpJRTIpwzLfi5e1RsJ0fgk9r/uwkejk5joh5WeSWYLSs0F51l7moVPuqXfURD+y15Nz8EEo64h9xoadE/9th/tkX3cn+y0T5mSsRcU2S4hslKP+i8y9Qun0Rvj0zxS/0apX4/SN4l6BcO76/qP73nAhdYX64Pn+bVuhc/4Uy9q4/UeGaZToq7+z1b68tqfFX7Wpq+bVXh7PHHMkvNj+l6nbm/l9fh732pfvvxPXVTMim9zfBZ7yNSeT6lapZmk/jS61UXV09n5VXByMo1+XhTKrw7yusTZ+LL1LuwhDvr5GrjMVtgVoc22FRXIXiVX36IEIpQ9PHrgEGeg4qlLSgxk6SmV1RFVDYzzaXcA8MQ5DC0K4LtuRaUnToU7tOiE2a7dyNrDqSHii0qMpLWwcfUkoUr2c29MioCEPx/HuBb79FxP6ypopraD4prj9C0eRLNymH2eX0aT8cBvdzDZ/q6yuU1ZJ8+VYrm/Ut1uROi3YE5aui6SdztwqL28OVxL6UWY6QszVoTf8sbbvRS4hg5xWXr6HjLv9hqd8V+ez1r7FZT5Qn96IwX8fgZeNHJ6sltgK/AWEw7bcseNOretBU01msdQrh7+bCW2/IXu6k9EmUb16UftvOD6M/+aQGkGVwl0VxFU43CPOn3gIrTHiR9i3Vk2UhMkCwv5qtryZ3mquhNDZp9EJTS+Pj5PxoKqp1fCXab+v8s4On6SGJ9o3+ZK0W4edWQq+MBiV0oUTGvDiRrsxQuj7qmUrULzX/JMfPYQfrrx+HJ5gzBIut2P1DoZWL5ltqF5sfpDyLzX9x8chtRmL+NpS3f/1JydfYvFh5ay127m8S4tM8cOb6kqzFiRPsyy85PyVqdv76s9++VP+lri974tne35wfX3s10f1M6vqVeP5I82m/51f9gnEdLRgn89ENl1h5tTMkPUc9hV9RvNbv07NxhVai35/UF/7l6cjVmcjHMhfqqgAMSuwNRVYWLW6IxbOTkxBBj9rzNnXJoEG6Ro9fD38Eg9O/RE7VNVSV6xqiBsgNRciv8kZ80u0IyjpB9kSLsttYBS3YSnm3TQu27HSNHv4FwC5anfzY/VDrjiDiLMkUGoTSxH7wSj+E0LNhtBgrBu7pGvJ5vUY+rzHk80p+lRfSEUQPSxkpsR4FFqVRqN+sWAiJPtEpzSGjPGkh00P0ybgK3uvPm+sWvIBldFEqhU/B9GyJPpSB3OT/Ij/aOIRsu2xZsDW4FwLUJ2kFPL0CpJJfK4XXUmfWoIfaiMLR9AlaUYyQ45ZLqHrALSiOrEaIugalqn50bm9aPPaDWYmTkW1crH8hF2hjgak9G/qnDwjA1dF3CiElEHbWYjUSl0/cMmv0ihKtX4p/GG1yINY/C2yglj5tmqMurL1sfWGoz6mC555c1ExNQE5ilSVU1kTy7VWfM4+fHMSWmGJ0Ii3iPwFPUhYKkxPo5YCU23TBgmsULS/4TIrOD3dSrnT0chQfAlM2+URTTNnC8VbfYqpdXiHVvrUfqluhSS5ExPEaFAjxdBVXaPwFWz8p5iLzQ4q/dPvERqR+QTpnxqd+NJr/X6p9mY6s5iL8ZLVkuj9O11nybag9LsRvDkT5aLKmW32hJesXlH/R6198/KT4Cv01uXviGsVnrlWQUi2kiCDoYvS0YFMLBSlk4vcPSORbvutAZH6Izf/m49H8t0wn3v/68x1ff9YzHMpnyRcrLzW/xPk6eX0177iLvx3JLzU/pZuRvv8LdThqX3L+S1xfUvc3y4JSEkBifB310xk+4s8faT7i5cWfX7ZyR05bgXcfuIYvZ7+Mjy4JT/EbK7Hyamc8rpJSGTPhebw5LZiillaZQ2GtXbYJZ+jBKTecxObV/8YrM+djw8MG6MqKcXrnPpzoc1+zmnQ4tmEDDs6ejtdXP0Yq3ekmUQOEenZsPoj+k2dj/cMepHQ1zbcjVrsdUu36DmpDIimwtGhnOnn5acmP6EIuvEtIOa2lB2NABGqnxqLUm6aHjvIyfkLkxtMNPohigpjoYYrB5JdH8VN1s8eYv/ZbEn2iX74N4edIgarQkEX2EIXKuh2l80lxsobK8siwOOOr9hyA2p/km/gwCikCgRDKy2v1f8wxSC2JHoqkcJaGCrKT9fjQAfTcpm5Q4kT7J2xKQDLWTuyLUsH3l9wOcCGHYp6SBdMaTUFKvoYu2flD5kT9YvI50z/hnDxhoZZOgx7W2K62ooSnpkIdQH6tUx9GsbB4RdikYO1J6/hdRdTq/bTJQzy0sx+FVsgnvlj7LUKsljzR8lLzo7YYQRQ+rWzqA8gZSXVrSRnYQz7J/WKtIkq1LygnZHM9fgEYdC/F8KW5RNEmvNYebBh/sflhcpcaX6n26bnUxvlnZ1rYHBJvX0ZLRMX5CQuyvqcFd/cibxW5ypivTxo/FXEyJ/H6hTPE5p9MYvycmd+GyAEoepNeOOvTrx9Gya/px1dfQfUZhfZqcxKfH6LzV6Jtqf7XFxe7/qTmr1CHeHnx+5sUX6nrWwKBU9mO5Zean9LVS19/YvzE57/U9eXc8098/on3UJqP1PNHio9UeXH56nMV8FMqIdMXoqjceYXXubrb5yyZSiXEheHEBJgAE2ACTIAJMAEmcLMTMNHanqfXLkNS5lI8tya9nePMtw9d6zeY9qmMa2ECTIAJMAEmwASYABPougT0Ubchzuc0dm49eUMqrgJZtrx23fnFkjMBJsAEmAATYAJM4KYjwJbXm27IucNMgAkwASbABJgAE+i6BFh57bpjx5IzASbABJgAE2ACTOCmI8DK60035NxhJsAEmAATYAJMgAl0XQKsvHb62Jlw5xR3/G1LKPbsj8LR/dH45zsheLiXEI69MUXfD6ykc36gcw58G4WP5weBwmdTki5/Lc6Ixe8EYMfOCBw9HIMPfkPbatpNJgyZ72k+5x8T7J0jlW+3Uj7IBJgAE2ACTIAJMIEOI8BxXjsMrf2KTUoj7hnmi6ID1fj8VBm0ShMeez4YS5eFo/TJAvyoN0E51Ii/Lo6Gdlcl/ncVneNhQp9gy1A5VV5JoZRLjdj6QwkefpV2VHKQfElB/mOsHy5cs7/lnVS+g2r5MBNgAkyACTABJsAEOowAK68t0CqQuOAfeFn/DTYjAWMHRcBPn4fDG1ZgVaqwMX1jqt8+rZy2T3N2/wmZ3g1rXqAtOG3SMWUxkhb0wr29FPjx/DX8emoAfA5cw5NvVTRsOXsU5v1kKWiwVHk9ZOlyzE+nnTiUtUh41QRhc9fmyRhchzmzInBoyRWEvxMGVbMTpPKb18e/mQATYAJMgAkwASbQGQTYbcABZc/4ePTevRTPTJmC2fvqcM/Mybinfn92cxnavnXOe3h/3VwkBzb95O+gSoeHPZS0i9Q1E/JKyQJKltk7Y72RcV6HOf8Ixt5ve+Lrf4QjZSiZUx2kJuUdnNP0sAnJr/hjwA96rDtlUYpdy3eqET6JCTABJsAEmAATYALtToCVVwdI67L24qMTJZRrQPa+Q7isUGFAVPsbqk2+dXh+QjAq9lZh95U61AWbEOrnjsQpwVDuqMZLL+dhzeVKjF8ejt/3atl+8/IOutPkcOBvZJjTyw/L/l5htec2LSWV70wbfA4TYAJMgAkwASbABDqCQEttqCNa6YJ11pYXNyh28ioDrpGlVdHE+GnAz0smYWwb+ib4r45bEoAxlQrMequowUVAqLL6SA3e/Lya2gUy37qKEfcHYNQwT3xMimx9EivvSKzaXnVY8kxPfL/gCk6Sfy2aGXSl8h3Vy8eZABNgAkyACTABJtAZBFh57QzKdtoQFM/Ry/3xYrAP5r9QbFEk6Tw56aZXrxlx5bygMFsTfdnPu2JAn4jG4XJU3k5TTQ4ZY+UYEqJE4ns98LhtzqwgHHrIB4lbC0TzpzxbhIsU8YATE2ACTIAJMAEmwASuBwFWXttA3T0wDEEKA1xZsCU0JyieDy32w1xSXBe8XIz/VBobpJBVynA2/xqGkIuABx01K7BkHQ3xdUPlFYs6K1ZeqjuKI8AzU3MaTyNZUv4WhdAdOiz6/CoUpeL5eTaKa/2CNR0tWKuSapjzmQATYAJMgAkwASbQDgRYeW01RFqwlfIuFsVn44NpC7Gr3H64qZbVWxTXhYMCsOGtYmgjTYiLpAVblK5cBvIr3fDvXeWYOr0n/ue4Dh+fr0FvisF6n1KB9ym8FiBV3kTKsQn9ycKqVMrhDxl8KIZsXJwMhlIZsgqMOH/eRio6V0sKaUBBHbIuG+lsmWi+bX8ip63Auw9cw5ezX8ZHl5yNt9CSCB9hAkyACTABJsAEmICzBFh5dZZUe51HyuLIBF94+LnhueUReM6m3m9mFWPh0RoUbarFa8FF+MOsEGymxVuVl/T48o1i8netJSusdHl9rBGLPozGLbCux3vCHxvoX86nVzH+3aZhulrfLQX8lEoK3VWIovJGy3Hr6+OSTIAJMAEmwASYABOQJiBTqVTswCjNic9oRsCEWDy9dhmSMpfiuTXpTse5ZZBMgAkwASbABJgAE2gLAQ6V1RZ6N3FZfdRtiPM5jZ1bT7LiehPPA+46E2ACTIAJMIHOJsCW184mzu0xASbABJgAE2ACTIAJtJoAW15bjY4LMgEmwASYABNgAkyACXQ2AVZeO5s4t8cEmAATYAJMgAkwASbQagKsvLYaHRdkAkyACTABJsAEmAAT6GwCHCqrs4lTe8bgOvz+lQD8flgAwjzkKKVQWIfWa/GXvTWNu2pdB7m4SSbABJgAE2ACTIAJ3OgE2PLa6SNkwv2v+OFl2qTgk5cL8dgTarxzqgIPzw/FpF6KTpeGG2QCTIAJMAEmwASYQFciwJZXB6MVMeM9rO69D39OjcLEsUPRL0iGiszPsPiNbci2bpFavz2qK9vDClu7Du7vhcIj1fgsvZYsrTLkbrqKSb8ORn/aEhaXeacqB0PCh5kAE2ACTIAJMAEmUL8FE5OwR8A9+lFMibuIjXOexO8mz8by3edRZVVcAdoeds57eH/dXCQHutkrbveYTC/HT5k6BMYpcWeEYPg2YcBoT8SUmvBDpt5uGT7IBJgAE2ACTIAJMAEmYCHAlleRmSDDGexY/W9k6ITtT/NwJjVP5Gxns2Q4+lYV3pkvx593RMGTislKjfj7q0X45kqds5XweUyACTABJsAEmAATuCkJsPIqMuyGol9wzqy42ksG/LxkEsbayxI9ZkLcFCWe6e+Pda8W4FipAf0neOPl5WEofaYQXxawAiuKjzOZABNgAkyACTCBm5oAL9gSG369Ae39Id/kW4enJ4RBs/EqPjlgwPlTwFdLr+IHZR2eGOsrJg3nMQEmwASYABNgAkzgpifAymsbpoB7YBjCwgLJ+9X5ZCT91I/CY9lLSqWsyWFhQZhQv4+9k/kYE2ACTIAJMAEmwARuQgL2taibEITrXaYFWynvurxgy61AhmOXqjFwqh8mDVWgVywwapYPHvJTIv1AdRMxIqetwLp1S/F4b1fUY9d7wiWYABNgAkyACRiCJv4AAB1SSURBVDABJtBVCLDPa6ePlBs+eq0E3rMCMWl5OF4iK2wlbVKwe0kx/pJ+zUYaBfyUSsj0hSgqd+R32+nCc4NMgAkwASbABJgAE7iuBGQqlcp0XSXgxu0SMCEWT69dhqTMpXhuTTo4+qtdTHyQCTABJsAEmAATuMkIsNvADTrg+qjbEOdzGju3nmTF9QYdIxaLCTABJsAEmAAT6HwCbHntfObcIhNgAkyACTABJsAEmEArCbDltZXguBgTYAJMgAkwASbABJhA5xNg5bXzmXOLTIAJMAEmwASYABNgAq0kwMprK8FxMSbABJgAE2ACTIAJMIHOJ8ChsjqfOa7FGbH8mSAMjvVCzxAFTi4vw7OfV14HSbhJJsAEmAATYAJMgAl0LQJseb0O40XhWyEvNWLrhyU4DY7heh2GgJtkAkyACTABJsAEuigBtry2GDhvJC3+EM8YDuKI9xDcFe0Lz6pL2Lt2FT46UdrkbGH71iDau7W8uNylcFaydDnmp18FlLVIeNWEoBYy8AEmwASYABNgAkyACTABewTY8mqHiglK+MfHwW3rAjwzZRpe3FmHB+e8iIcCbXHR9rBz3nN5e1g7zfEhJsAEmAATYAJMgAkwAScJsPLqAJR75tf45EQJ5RpwZfd2HNAPxCNJYQ7O5sNMgAkwASbABJgAE2ACnUGA3QbsUJZBj7KiYpRZ8+SGPKjLTRgW1ZOOFFqPGvDzkkkYa6c8H2ICTIAJMAEmwASYABPoGAJseXXA1YMWVSmseYIbATmoNvx2UIQPMwEmwASYABNgAkyACXQwAVZe7QAWlFXvqN4ItuaZFD0RG25AkSavydnugWEICwtkpdYOQz7EBJgAE2ACTIAJMIGOIMDKqwOqtX0ewfNjhiAqrDfunjEZ9+Esvj8k+MDWJ1qwlfJuqxZsmZQmxMbJEBcnhz9k8OnlRn/L0D+Ch8PBcPBhJsAEmAATYAJMgAmYCbDPq52JIPi8Xj26H78kPoe3p/VAXdEpfP2XNdhVXmfnbNcP6WONWPRhNG6BVVl9wh8b6F/Op1cx/t1y1yvkEkyACTABJsAEmAATuEkIyFQqlekm6auT3bTEeX22aAWeXJPuZBk+jQkwASbABJgAE2ACTKAzCPB36s6gzG0wASbABJgAE2ACTIAJtAsBVl7bBSNXwgSYABNgAkyACTABJtAZBNhtoDMocxtMgAkwASbABJgAE2AC7UKALa/tgpErYQJMgAkwASbABJgAE+gMAt1SeQ2e/A62b/8UG/76Bsb39+sMjtwGE2ACTIAJMAEmwASYQCcQ6JbK65XNL+M3k2fj4/J+eGLCPfDpBJDcBBNgAkyACTABJsAEmEDHE+iWyquATa7LQ3rWFZgCA+Hb8Ry5BSbABJgAE2ACTIAJMIFOINBtlVeB3TXUmhEqOwEkN8EEmAATYAJMgAkwASbQ8QS6tfKqrxL2X/DueIrcAhNgAkyACTABJsAEmECnEOjWymu5RgNt1BA8GBcCRafg5EaYABNgAkyACTABJsAEOpJAt1ZefdI+xgen/PDokg/wr03zcKdC1pEsuW4mwASYABNgAkyACTCBDibg3sH1X9fqqxJ/j2fjruLLBa/h41OlMFxXabhxJsAEmAATYAJMgAkwgbYS6NaW18ioKARoTuI7B4qru3cgwsICOZRWW2cRl2cCTIAJMAEmwASYQCcR6NbKa52P4Cagc4gyctoKrFu3FI/3Zo9Yh5A4gwkwASbABJgAE2ACNxCBbq28esDiFaG3C1wBP6USMn05isqNds/gg0yACTABJsAEmAATYAI3FoFuq7yaFD0R3z8YsvJyVNphbkJvJPb3Remhz7CnvM7OGXyICTABJsAEmAATYAJM4EYj0C0XbAVPfgcfjotEee5pfLrmMKrsUNdH3YY4n9PYufUkL+Syw4cPMQEmwASYABNgAkzgRiQgU6lUQiR/TkyACTABJsAEmAATYAJM4IYn0G3dBm548iwgE2ACTIAJMAEmwASYgMsEWHl1GRkXYAJMgAkwASbABJgAE7heBNwCAgIWXa/Gud3rQUAO9csToL2tDAHpV+0IIJXfWMToH4GcucnQPp0I7WO3ourCGfgVOe+Fcr3L2+l8px5qa/87VdibpjHn57+zSGojbkXuX+6B/Mfz8LCzelQq39l22ue89u9/U7k6un4pCq6337njIyVfW/Ol+HA+E+gaBLrlgq2ugR7IG/EgakeUIGrRz3CzCm306oPcv91npwsUEWHtP6FKM6AuJBKaqXcBAwPpPNo37Gw2wjceg2epRXE0eQUjZ2oiMDgM8KYwYPmFUG47igi7yqqdppw8lJtMMngXInzeV1DoaiGvFkKOKaBOjgeGRwGRvvS7Bsgg+bYcb5CvvvqOKe+k8ObT6EEwZTQwMhjYuB2q/XY0C1eqo3OdGT/x/ltyrw66HWXjY4mhFw0xLTk8egzRm3JIYiER49H3AMnRlvG9QHzXN46/IaYv8sf3B1TUrwC6xNd/ClWqJWCctHyQHD+p+ecislacLt5/KT5Cg+J8pUVqa3nxFsT7Jza+zl1/4vWLy0bTUWR+1ZdtCx+p+qXub1Llpfonnk/sfpsEDA0BQr0JRjXdfy8jZMtP8CmwRK2Rav96Xz/i/KT7J3V9tb1+8RFoa/3i5SH5fG2Urq3PD/Hy9vQDcTI3Vy4rrzfYeMurcxG+8N+wjTxbMvhO4DE5wjOEDW59oJk5gu4f2QhZug8KgzcKJt6HopRrViVYTorrg0C/IgSs3AFvrQL5o4dBP/N+VL2+Cz6l7djhUFKs8vNJKbWNpOsHxNO/tAz4q8thVISgcnwCimbL0fOPx6yRd60ydEh55/t3ddDdxIkeOAbnrcVStUuPn00NdvtP22oMSEBZSj/g0AkEbimDSeGJqwHXGgoWDR9O84FeXNbvRli+EsVTbccfdD6puCW5NAbFwPS4JiJLy0cKr+j4Sc0/KUJtz5fqv1S+FF8pCdtaXqp+KfnFxheQvv6k6peST7x96fnbtvql7m8m0fkv1bZT+RXlkH3xC4LydajzDoB2/F0opfubxytHzPc3cT7X+/qR4kcdkOif+Pxpe/3iY9DW+qXKe0s8Xxula+vzo63lxTl1/9xup7zW3PE8Pp5zC3Jz/TEwuho/bv8exod/h0QfNb5e9iY+OqWDZ+KTmDNhGPpEBSGELJfFF49hx7oN+PpSo+VNFnUvpk+bgGFxMfBFOUqyjuHj1etwuLhRrRS2lw3yAcqLy9sx3JYBnjllNjOPdv8aTwpFxjF40Eu+8KkZ/UyQrT4OnxxBma1E1MYMaP40CGV9MxCa7U8WNw86/xwCsi39idp1AZqRCdBGykl5tSpq3hHkPkDK20DqgLYEXhsPIizTZjcyh/nCZ6uJZNWttxXfB/UGwVKsh/vKf6Fn5hWo3vrORv4SuqGHozwlAtURMvgVyDq4fB208XdAO7oPcSDLCEg5VecgaOMR+OU0xvM1eUWgbGIIfNefQuWr9ze50qXLC9ZlsmwLls9QuoTIsi0ny3a02bItPn5ma68oPwVKHhtAltZUxGxSQ9gjTkgBDRL6oEZo9/gBxKSVmvN7bPkFhfNvsY6/EcrsX6DKpoeouwo50xsKWv+Qkk98/Hx0UvPPKMlfiq94vlT/vST4KCX4WjE5nP+ekuVNXkHEnSzjg8k6p6O3xT1XmgyCeL5U/6TGV3z8/Aq8JfhI9R8S80uaj7kFh3yl6pe6v9VJyCfdP/HxMUC1J91mPEvpO0gYSmaHoyZEBl+6v4pdf9L3b2n5pPiJ50vxk+qf1Pxpa/3C80ns/trW+sXLexmk728CX7Hnh7j8lvEVL28zvfhPhwS65YItk48CuVv/hGXpbriXlNTLK1/HO5nBePjhBLosyHYZqETBvn9g1Wtz8OycxfhI0xdPL3gOdyosqkJt4D14efEcJOEgPnxtJl6c82dszJIjKqheYRN4KhA35z28v24ukgNtjztk3SLDU0faqNb+/l/1J9eFkBI20ATPPTlmRcWksLTlZmMtlBlIKVP4QicoragALpASOrA39P5CCQU0Q1XUTgFCLtQrb1RHAln2Mo8g4vV/k6IrR3UKWWbp5mtJYvlGqN75GKppm0nBIvmPH6S/N9K/T0lxbVQObTtb4031Ga5BoRVuTB1f/prQXmoawpZ+gYiFe0i5DELZ7Huhb3hV8yTlYhjJfgxB6lpbUc1/S5VXj34AGO0N5ZY9iJj3b8j2VMNI1nBtTMvLqfn4SfXf5E4KjxC9LkeBnD+OhXrNE1AvGonSAYIiLiikZHGNpHE6d6VBsVWqC4mvN42/5ZwWHRI50FK+lifbjp/0/JPmJ8VXLF+q/9L54nwtvXc8/6XGR3g5yZk6ksawCoHLdyB09VlyoaFruGEHavF8Kflbjo70kSbj59T8cdx/qdak+Qg1tL5+5+5vUlKKtS8+Ps1rFhTdkhGR9KXjCpTm+5t4cub6keYjJr8UX2eeD419aN4/6fnZtvqFlsXvr22tX7y8c+Mj/vwQl1/ooXj5evrO6Afis61757Z82naD/srL1Dh+6iIOpxfCUP4LTmVdQvqpQigCA8iKCpR++wHW7zyCzEsalGjO44fN3+KcTz8k9LFoN8Ejx2IYjmDdss9w5FKR+Zy0zX/DtizB0tl+KTjtP6QInmnwd7VXs2YE+S5qcxB8zqJkuZUWkTLmjtrkWNTSV3uTuydyx5OlTkjeSvqPETEb99I5EShYNYWsomQlTZYhaOVBs+W2IanPIGpPAZSlFYjZ8iNZiIJRmkBvpfVJKt+mKrE/Te7BqBlNN/ejp5q2L1bIJq815cNTfyL/VQ28ciqhLChF9LYzxIbcF8jyLKTi4WRxDs1F5Bf0Wd1OEitvcqc382RSILccJB/i/9/e+cdGWaRx/PuW3dIfwJa2SJfa9QeKUZRL9a4XFY2nciTI+YMjpyLpH54G/jgvkURDLv64O2NymItwogkJ6h8KCTkVL96JCZzCcSAKZ/H4oVgDF7ctpfTXLtil7a7de2bf3dJu951Zut26db+TQNudnXmf+TzzzjzzvM/MKxOW4rfrMxlxpyB4c+WI2pL1N+ILSR9ES4pEVpmcFl0N7NqDi9Z8JLqcgp744iKW7xbvf7AP/gcWw//CfPS7RbHKaV6hFi8XlkzyJfM39z9Ax09Jl0m+qf1p5Wv4DtJz6P9G/bikr18vN+a2zzBNnnyUnDiBom2tg9VGTfljrN9k/Zn4mNpv6l0mPpnWn/b4ZhLUSb8G/SSq/bb2Jhlb69H0yi9kodKNihc/QeHIdfAIKdK5f2KFHORLm59j+fTmB6f2mftPhvUbx9fM6jf1n3T0o5s/0pkfdOWHdph07IMRHSyPPvjBhQ3YuutHWOzMvv4wLPmnogX75WfULd4y+T166W145OH7cOOcGpSrD2IpgK6Y59WN6jnVKGj5Jw5pYyHD+O9zy3BfongWfkZdsuFqvhiUOz4eEisakM05+3F65Y9x8hUxwuRxPfY0yspfbd5SSTwHP5dHlt5ulLy4G1OCLpyWjVXdq26B69l/oVgWnrFH6a3BQaPZisjj7g7xGtQo0149+tblB+3LpPV/KZoeEy9U6DBmvdEy6ClMq2jsS6MrH67yobX+RxJeIUzi3nS1cSwijknlaTy31INp6/fBLZNNNMUdoCs/4Jkuz/DFSFz5K/hXJrWkQwzLISm1/tJpvRivhw+iZm97jFnNaw1oWnc7Oq8rxcUNQ8p3ykauYO8ouNp1mOVLxd/U/8QJrOGvrpxR/tDuZ2q/Y74z39JdahWg6f+fqhY4l598TO5Xdy9K/OdDcMr83TgVllhUVXOlPj/2pURylH/YtzR/jNTfMN+gY/2a9iOd+9+Zj5GvsX7T+Gb2fur0m65+Sg83yHj6JfpkPAjeU4vO+qtR9MIRrSPCVpT5/tHJZx6fTeP3WcP8YPNzal/i2VysLSn7T3r6caofxvE1s/onGedHvX5M84dpfjCV19zMzEoikGLq/gEzKrRwCldi2eoVuPV/W/Dnxz7A4fZ+MWruxB+Vh3JIKhy1STB2/M5eJ7vNS4Ko+HRoDKw8dDjRCN+TjfhumhhL4X4UhL3iARBPnYQgDBRLPOQ94gGU3fOVR2xXa80byvhZgHYxhH3b1OA2HqkU/t8sEEPvG3jXHIErDa/EcKlGW74Mravmi+eiQR7pN6LwzIB9AsA6ORlB0jmfeMY85Tjz1DIVYHE+1S+B/+YD8D3fqi0fKxAWj9qav0l88dBtdUMrs3930t/Ib57/xArJqkstmsRrnJgorIgYqTHPajGskJzeEBYPspwi4NuxUxY2ygCvln4i+Z1qmZZ+0svnzF/X/wA9/0zzTe035+v52qCdGZr0EyupXfTq803yO0uWnJNaf2NXf/L17L/NfIbE1aeuQvupeXxLx7jWXsKsPyluRXplb4L6142pfgvN636CtmuPSeiUeaDT3z8G2TLMTpefU/u8x/TjT6b1z1QPKTTj60CxhMBp5zdb/07yVx2fZSyv049p/qjeoJdfebR188/Fz38ZP1EmQ0XnQfH8Ml5FoZGyK3FNWRAH3rUNV6XjnssuQ5UYtrZZF0ZLYwt6F8/DPPd27NNMRK6yGZjuDo/xhq1ErytCYMElcgzLARQnNlkldchJZ2QgkdRVd7n8H0CFGljcElw3GF+XKBCPRS1OqFs8I16P8i/FPAVRl3iFKsVU2p/YsGbKTxJkxJ/xibOyVQzX/0A91b6wNPryA9MkptEjnq9ttuGqrhv2irc07oFVK373744MijPgnoH2p2RA2b4dVbu6ZUNcjbZ8QVAWEuEihGYLsxO6idKsv1RMrIjU35rwgtv1R12yqU4Zp2fOyaQpk7/Kv2oGorvsDV39vpnSvtAwb1+quod/ppMvPf6p+t/ANJkcNPxN+jHlW5GAtv1WRNho+FgR6ecavjYj5/5vRWTBoik/qUOWROFChCqljvjiprdS9Be/J035pvaZ9aq+4ay/9Op3br/p+qb+a+Jrqj+98c1Ui3P7JnVIWY3+nGueJE6QYX5J56/Gc1LdP2IWS66zfOnx05R3i2PDOD+kEt1un7H/uNVYlFw+ef5Jzld/2/Ubx9e05jfn+i+k/6TST0lQP38UBMu184Np/vlBxnGmUscYfJZ3xuuknmb4ezy4tu5SuBsbZXPOlXh0+XxUiSn3dRxo18538cni32LF6l8i+uZuHO8pwcyf3oaaxk34oDGxspYNW4/9Bb+vPYGNDz+LbYH4DToGSlFVROTRa+xUgQ3fjFiJnbvqCrR7z6HC34tO32w5jeBS2XwkIQFi5BZAYmL9MsEukhcHdHyOomAB2hZcL8aPGDcHh3hwfVejZUEbqhp6cUqd1+ruQkWD8kXGB2DHfFMDi+BfcafI3oOS175GuHJ67CQGS2JxC1WogtExkVl5KyRtCIlxWVuB6AmJaZUzb9uWXjEotFqRTz5lG/3qw5jhrpI8AiuUI7+iLlP5UxLP2CWr91vhD8mGt2OhWBs762aj+OAeObHB7gc6/Q0Kk/IXWULtFR3K8WL+I72YKbpsWyQhEO520Y94YKE27zWjt/56NNX12EdlPSjt83+F6XFjScVB98n5sBG3GE0qVU1HqKZfNswF4RZPtErO8pn56/qfZeJn0o8hX5aahvab8k18Tf1fjGONfmKLiwYJ5VlwDSIN6vzmMgQWydMQ2Cs4KyKuJU2+uX2qz+r0W2i4/0x84tOn5v7XXz9Tvqb2mcc3vXz2LQGH9sVCqDT6GSiuRnP9LLgOtsDT0Yd+jwdnF90gY85pzDhmD2766w9Ad/+Yx19T/9TnF6j7XzM/mNsnp5Voxh/T/GOq34qYxle9/k31F5zRl1e9Q6cfS8LPdPMH5Nmufn4wlY/3T/4wEsg749UbPoRN6/+OJ1c+hdcXhhHqbscX/9iJzy+7ZRCWK7APa5+x8PCK+/HIn5bJcVoB8cYewF8/1T8mNtK+gC+cVBu1Qi2YGTvbNTmJUSIDZmelxF6KQYI9uzHrbX/cyD2L6vW75CUGtQiuuhtBtblHjnLChu2oiBk3anISA6vhOHDtTXJGrMTgdbSheMO/48doqcFPl58sy/C/ozJZ4zqpU84/DK1aHHvabSd5xLbmbVz0lZ5hpuWtSDumy/FX3fW3o+lncq2gGKM7JCZ4toRgpJHSKe/b9iH84ToxYG/HqV8rHYjH+ngzSjrOt02vP70gvh274Z8m9T+4EG0e5SkU/az/ePCYs4v27oXfI3HN9QvRrvSrXlKw4dBgvF3YexVO/0EM3kS6ayE67pI/3n8fvnfk6CZJTvKlx1/T/wz8TXxN+Up2U/tN+Xq+5v6vLx+VDZMfoWnlTTi5TkJ5QtI3Dsv950tshlQbTnT55vbp9Fvzjri9DPefiY/p/tddX/UvPR8zX1P9+vFNPWnR9X+1gNeNb3r9WeqlBDLGRR68HJ0q9l3CtnC8Sc7UlidkZ+x4Uf311f2nuX9id6dOPhM/U75hfnCZ26fvP5nXrx9fM63fUD7G36Sf2Jcck15+x2LMuEACls+nzuVhIgESIAESIAESIAESIIHcJ8AQi9zXESUkARIgARIgARIgARKIE6Dxyq5AAiRAAiRAAiRAAiQwYQjQeJ0wqqKgJEACJEACJEACJEACNF7ZB0iABEiABEiABEiABCYMgZw0XsuXr8XWrVvw+kvPYOmc+FFGEwYpBSUBEiABEiABEiABEsgWgZw0Xrs2PY57l6/C5sBsPHD/jergCiYSIAESIAESIAESIAESGHH+fc4gKQidxMHGLkTLyjAlZ6SiICRAAiRAAiRAAiRAAt8ngZz0vCaA9MF+Y0nh90mI1yYBEiABEiABEiABEsgZAjltvPb3qPcnqJe6M5EACZAACZAACZAACZCA/a7QnOUQaGlBsHoe7phbAXnpIRMJkAAJkAAJkAAJkECeE8hpz2vp/s3YeHQq7n5uI9568wnc4FbvbWYiARIgARIgARIgARLIVwKuXG54T91DeHTuWbz39GpsPtqJcC4LS9lIgARIgARIgARIgASyTiCnPa/e6mp4Wg7hQxquWe8IvAAJkAAJkAAJkAAJTAQCOW28fleqwgRCE4EjZSQBEiABEiABEiABEhgHAjltvE6GHdXQPw4geAkSIAESIAESIAESIIHcJ5CzxmvUPQu1c8phBQL4Nvc5UkISIAESIAESIAESIIFxIJCTG7bKl6/Fq0u8CDR/gS0v70PPOIDgJUiABEiABEiABEiABHKfgOXz+dSbAJhIgARIgARIgARIgARIIOcJ5GzYQM6To4AkQAIkQAIkQAIkQALjToDG67gj5wVJgARIgARIgARIgARGSyArxquKWd26dQtef+kZLJ0zdbSysRwJkAAJkAAJkAAJkAAJDCOQFeO1a9PjuHf5KmwOzMYD99+IUkInARIgARIgARIgARIggTEgkBXjVclVEDqJg41diJaVYcoYCMoqSIAESIAESIAESIAESCBrxqtC24dIjHAhOZMACZAACZAACZAACZDAGBDIqvHa36NO4SoZAzFZBQmQAAmQAAmQAAmQAAnI0/1sQgi0tCBYPQ93zK2AO5sXYt0kQAIkQAIkQAIkQAJ5QSCrxmvp/s3YeHQq7n5uI9568wnc4LbyAiobSQIkQAIkQAIkQAIkkB0CWX09bE/dQ3h07lm89/RqbD7aiXB22sBaSYAESIAESIAESIAE8oRAVj2v3upqeFoO4UMarnnSndhMEiABEiABEiABEsgugawar9+VqjCBUHZbwNpJgARIgARIgARIgATyhkBWjdfJsKMS+vMGJxtKAiRAAiRAAiRAAiSQTQJZM16j7lmonVMOKxDAt9lsAesmARIgARIgARIgARLIGwJZ2bBVvnwtXl3iRaD5C2x5eR968gYnG0oCJEACJEACJEACJJBNApbP51NvEmAiARIgARIgARIgARIggZwnkLWwgZxvOQUkARIgARIgARIgARKYcARovE44lVFgEiABEiABEiABEshfAv8Hledvx7SDquIAAAAASUVORK5CYII=;" parent="1" vertex="1">
          <mxGeometry x="-1200" y="225" width="509.71" height="230" as="geometry" />
        </mxCell>
        <mxCell id="8pKGcIUcJZvDd2UI-VuH-6" value="" style="endArrow=none;html=1;rounded=0;entryX=1;entryY=0.5;entryDx=0;entryDy=0;exitX=0;exitY=0.5;exitDx=0;exitDy=0;" parent="1" source="8pKGcIUcJZvDd2UI-VuH-4" target="8pKGcIUcJZvDd2UI-VuH-5" edge="1">
          <mxGeometry width="50" height="50" relative="1" as="geometry">
            <mxPoint x="-620" y="410" as="sourcePoint" />
            <mxPoint x="-570" y="360" as="targetPoint" />
          </mxGeometry>
        </mxCell>
        <mxCell id="8pKGcIUcJZvDd2UI-VuH-8" value="" style="endArrow=classic;startArrow=classic;html=1;rounded=0;entryX=0;entryY=0.5;entryDx=0;entryDy=0;" parent="1" source="8pKGcIUcJZvDd2UI-VuH-4" target="8pKGcIUcJZvDd2UI-VuH-2" edge="1">
          <mxGeometry width="50" height="50" relative="1" as="geometry">
            <mxPoint x="-610" y="440" as="sourcePoint" />
            <mxPoint x="-560" y="390" as="targetPoint" />
          </mxGeometry>
        </mxCell>
        <mxCell id="8pKGcIUcJZvDd2UI-VuH-21" value="get encrypted privKey" style="edgeStyle=orthogonalEdgeStyle;rounded=0;orthogonalLoop=1;jettySize=auto;html=1;entryX=1;entryY=0.5;entryDx=0;entryDy=0;" parent="1" source="8pKGcIUcJZvDd2UI-VuH-13" target="8pKGcIUcJZvDd2UI-VuH-2" edge="1">
          <mxGeometry relative="1" as="geometry" />
        </mxCell>
        <mxCell id="8pKGcIUcJZvDd2UI-VuH-13" value="public key&amp;nbsp;&lt;br&gt;password" style="rounded=0;whiteSpace=wrap;html=1;" parent="1" vertex="1">
          <mxGeometry x="-190" y="310" width="120" height="60" as="geometry" />
        </mxCell>
        <mxCell id="8pKGcIUcJZvDd2UI-VuH-17" value="keystore &#39;s secret key&lt;br&gt;rpc &#39;s secret key&lt;br&gt;daily secret key" style="ellipse;whiteSpace=wrap;html=1;" parent="1" vertex="1">
          <mxGeometry x="-330" y="190" width="130" height="90" as="geometry" />
        </mxCell>
        <mxCell id="8pKGcIUcJZvDd2UI-VuH-19" value="" style="endArrow=none;html=1;rounded=0;entryX=0;entryY=1;entryDx=0;entryDy=0;exitX=1;exitY=0;exitDx=0;exitDy=0;" parent="1" source="8pKGcIUcJZvDd2UI-VuH-2" target="8pKGcIUcJZvDd2UI-VuH-17" edge="1">
          <mxGeometry width="50" height="50" relative="1" as="geometry">
            <mxPoint x="-520" y="400" as="sourcePoint" />
            <mxPoint x="-470" y="350" as="targetPoint" />
          </mxGeometry>
        </mxCell>
        <mxCell id="8pKGcIUcJZvDd2UI-VuH-22" value="&lt;span style=&quot;color: rgb(0, 0, 0); font-family: Helvetica; font-size: 11px; font-style: normal; font-variant-ligatures: normal; font-variant-caps: normal; font-weight: 400; letter-spacing: normal; orphans: 2; text-align: center; text-indent: 0px; text-transform: none; widows: 2; word-spacing: 0px; -webkit-text-stroke-width: 0px; background-color: rgb(255, 255, 255); text-decoration-thickness: initial; text-decoration-style: initial; text-decoration-color: initial; float: none; display: inline !important;&quot;&gt;get encrypted privKey&lt;/span&gt;" style="edgeStyle=orthogonalEdgeStyle;rounded=0;orthogonalLoop=1;jettySize=auto;html=1;" parent="1" source="8pKGcIUcJZvDd2UI-VuH-20" target="8pKGcIUcJZvDd2UI-VuH-13" edge="1">
          <mxGeometry relative="1" as="geometry">
            <Array as="points">
              <mxPoint x="-380" y="450" />
              <mxPoint x="-130" y="450" />
            </Array>
          </mxGeometry>
        </mxCell>
        <mxCell id="8pKGcIUcJZvDd2UI-VuH-24" value="decrypt privKey -&amp;gt;&lt;br&gt;send data with decrypted privKey" style="edgeStyle=orthogonalEdgeStyle;rounded=0;orthogonalLoop=1;jettySize=auto;html=1;" parent="1" source="8pKGcIUcJZvDd2UI-VuH-20" target="8pKGcIUcJZvDd2UI-VuH-23" edge="1">
          <mxGeometry relative="1" as="geometry" />
        </mxCell>
        <mxCell id="8pKGcIUcJZvDd2UI-VuH-20" value="rpc server" style="rounded=1;whiteSpace=wrap;html=1;" parent="1" vertex="1">
          <mxGeometry x="-460" y="510" width="120" height="60" as="geometry" />
        </mxCell>
        <mxCell id="8pKGcIUcJZvDd2UI-VuH-23" value="lc middleware core" style="rounded=1;whiteSpace=wrap;html=1;" parent="1" vertex="1">
          <mxGeometry x="-120" y="510" width="120" height="60" as="geometry" />
        </mxCell>
        <mxCell id="8pKGcIUcJZvDd2UI-VuH-26" value="keystore &#39;s secret key&lt;br&gt;rpc &#39;s secret key&lt;br&gt;daily secret key" style="ellipse;whiteSpace=wrap;html=1;" parent="1" vertex="1">
          <mxGeometry x="-465" y="600" width="130" height="90" as="geometry" />
        </mxCell>
        <mxCell id="8pKGcIUcJZvDd2UI-VuH-27" value="" style="endArrow=none;html=1;rounded=0;entryX=0.5;entryY=1;entryDx=0;entryDy=0;exitX=0.5;exitY=0;exitDx=0;exitDy=0;" parent="1" source="8pKGcIUcJZvDd2UI-VuH-26" target="8pKGcIUcJZvDd2UI-VuH-20" edge="1">
          <mxGeometry width="50" height="50" relative="1" as="geometry">
            <mxPoint x="190" y="550" as="sourcePoint" />
            <mxPoint x="240" y="500" as="targetPoint" />
          </mxGeometry>
        </mxCell>
      </root>
    </mxGraphModel>
  </diagram>
</mxfile>
